<svg id="Layer_1" data-name="Layer 1" xmlns="http://www.w3.org/2000/svg" viewBox="0 0 399.95 199.11"><defs><style>.cls-1{fill:#fff;}.cls-2{fill:#e5e5e5;}.cls-3{fill:#386895;}.cls-4{fill:#b5b5b5;}</style></defs><title>airport-nobg</title><path class="cls-1" d="M393.81,224H136.88L83.55,170.67H56.89L79,281.26A28.27,28.27,0,0,0,106.73,304H439.87a17,17,0,0,0,17-17A63,63,0,0,0,393.81,224Z" transform="translate(-56.89 -170.67)"/><path class="cls-2" d="M76.49,268.64,79,281.26A28.27,28.27,0,0,0,106.73,304H439.87a17,17,0,0,0,17-17,63,63,0,0,0-2.73-18.37H76.49Z" transform="translate(-56.89 -170.67)"/><path class="cls-3" d="M442.09,246.52H407.42a9.19,9.19,0,0,0-9.19,9.19v.57a9.19,9.19,0,0,0,9.19,9.19h45.64A63,63,0,0,0,442.09,246.52Z" transform="translate(-56.89 -170.67)"/><circle class="cls-3" cx="300.55" cy="87.21" r="7.6"/><circle class="cls-3" cx="258.72" cy="87.21" r="7.6"/><circle class="cls-3" cx="213.09" cy="87.21" r="7.6"/><circle class="cls-3" cx="167.46" cy="87.21" r="7.6"/><circle class="cls-3" cx="121.83" cy="87.21" r="7.6"/><polygon class="cls-4" points="227.56 113.78 113.78 113.78 28.44 199.11 85.33 199.11 227.56 113.78"/></svg>