<svg data-name="Layer 1" xmlns="http://www.w3.org/2000/svg" viewBox="0 0 1096 780"><defs><clipPath id="a"><path fill="none" d="M.64-.44H1096v585.82H.64z"/></clipPath></defs><title>LondonCityScape</title><g clip-path="url(#a)"><path fill="#f2f4ef" d="M0 0h1096v780H0z"/><path d="M726.26 435.24L700.1 372.9a1.43 1.43 0 0 0 .18-.37 1.5 1.5 0 0 0-.39-1.54l.24-.09.11-.33-.26-.09.52-1.6-.21-.07.17-.53-.72-.23-.17.52-.21-.07-.48 1.48-2-4.72a1.53 1.53 0 0 0 .19-.41 1.5 1.5 0 0 0-.45-1.53l.24-.09.1-.33-.27-.07.46-1.62-.21-.06.15-.53-.73-.21-.15.53-.21-.06-.46 1.62-.26-.08-.1.33.15.21a1.51 1.51 0 0 0-1.19 1.07 1.45 1.45 0 0 0 0 .59l-17.66 10.92v-.06l.06-.25h-.2l.28-1.22h-.16l.09-.4-.55-.13-.09.4h-.16l-.13.56-11.74-16.59-.09-.14-.14.1.27-1.66h-.22l.09-.55-.74-.12-.09.55h-.22l-.27 1.66h-.27l-.06.34-.11-.13-23.68 21 .09-.72h-.12v-.3l-.4-.05v.29h-.12l-.12.9h-.15v.18l.1.1a.8.8 0 0 0-.54.66 1.09 1.09 0 0 0 0 .12l-13.31 11.79L607 357.29l-.15.08a1.51 1.51 0 0 0-.42-2.41l.2-.16v-.35h-.27v-1.7H606v-.56h-.75v.56h-.22v1.7h-.27v.35l.2.16a1.52 1.52 0 0 0-.43 2.41l-.15-.08-16.78 34.58-13.31-11.78a.83.83 0 0 0 0-.12.8.8 0 0 0-.55-.66l.1-.1v-.18h-.15l-.12-.9h-.12v-.29l-.4.05v.3h-.12l.09.72-23.68-21-.11.13-.06-.34h-.27l-.27-1.66h-.22l-.09-.55-.75.12.09.55h-.22l.27 1.66-.14-.1-.09.14-11.74 16.58-.13-.56h-.16l-.09-.4-.55.13.09.4h-.16l.28 1.22h-.2l.05.25v.06l-17.67-10.92a1.45 1.45 0 0 0 0-.59A1.51 1.51 0 0 0 516 363l.15-.21-.09-.33-.27.08-.46-1.62-.21.06-.15-.53-.72.21.15.53-.22.06.46 1.62-.26.07.09.33.24.09a1.5 1.5 0 0 0-.26 1.93l-2 4.72-.48-1.48-.21.07-.17-.52-.72.23.17.53-.21.07.52 1.6-.26.09.1.33.24.09a1.5 1.5 0 0 0-.39 1.54 1.56 1.56 0 0 0 .18.37l-26.16 62.35q-2.19 1-4.4 2.13l8.33 8.33h233.34l8.34-8.33q-2.22-1.13-4.41-2.17zM709.64 428l-1.27-.51-1.54-8.44 1 1.48zm-1.24-6.73l6.21 8.78q-2.31-1-4.59-1.89zm-102.73-15.1h-.26v-.5h.65v.5zm-102.22 14.36l1-1.48-1.45 8.44-1.27.51zm-2.14 7.62q-2.28.92-4.59 1.89l6.21-8.78zm46.51-66.61zm0 0c0 .18.92 8.12 3.48 24.14l-4.12-2.55zM572.95 379h.08a.8.8 0 0 0-.05 1.29v.53l-7.13 13.84-1.68-1-14-32.56-.3-.88a1.49 1.49 0 0 0 .26-1.09 1.56 1.56 0 0 0-.24-.59L572.94 379zm-13.21 32l-1.28-1 .19-.37L560 411zm-1.55-1.28l-.06-.05c0-.25-.07-.5-.1-.75l.38.39zM543.38 414a3.33 3.33 0 0 0 .47 0l.11.48-.45.11zm-24.56-18.13l-.77-2.41a4.75 4.75 0 0 0 .78-.1l.75 2.34a4.28 4.28 0 0 1-.76.1zm-.82-2.47l-.78-2.47a4.79 4.79 0 0 0 .76-.11l.75 2.34a5.38 5.38 0 0 1-.73.1zm-.79-2.5l-.79-2.51a4.24 4.24 0 0 0 .75-.11l.75 2.34a4.07 4.07 0 0 1-.71.1zm-.79-2.52l-.78-2.53a4.25 4.25 0 0 0 .72-.11c.24.75.48 1.53.75 2.34a4.2 4.2 0 0 1-.69.1zm-.79-2.55l-.77-2.51a4.79 4.79 0 0 0 .69-.11l.75 2.34a4.14 4.14 0 0 1-.67.1zm-.8-2.58l-.74-2.47a4 4 0 0 0 .65-.11l.74 2.34-.35.07h-.3zm-.79-2.63l-.1-.33q-.32-1.07-.57-1.94v-.12a3.78 3.78 0 0 0 .55-.1l.74 2.34a4.41 4.41 0 0 1-.64.11zm2-13.47l.17.64-.34.06zM530.76 418l-.47-1.58.28-.07.3-.1c.14.53.29 1.06.44 1.59zm-.25-1.85l-.28.07-.59-2 .3-.08.3-.1.57 2.05zm-.63-2.25l-.3.08-.18-.61.24-1.5.54 1.94zm-.51.12h-.07v-.18zm-1.69 4.73l-.32.09-.67-2 .33-.1.31-.11.65 2zm-13.91-42l.26-1.09.66 2-.46.18h-.12zm.14 1.15c-.18 0-.32.07-.43.09l.2-.84zm3.77-4.78l.66 2.37-.36.06h-.3v.14q-.36-1.35-.66-2.5a4.06 4.06 0 0 0 .66-.06zM517 373l-.09-.33-.53-2.07a4.21 4.21 0 0 0 .61-.09l.66 2.37a4.06 4.06 0 0 1-.65.12zm11 34.12l-.36.09-.59-2 .38-.09.31-.1.57 2zm.37.1l.58 2-.31.1-.34.09-.59-2 .35-.09zm-1-2.35l-.37.13-.59-2 .39-.09.31-.1.58 2zm-.63-2.25l-.39.09-.59-2 .41-.1.32-.1.58 2zm-.63-2.25l-.41.1-.59-2 .42-.1.31-.1.58 2zm-.63-2.25l-.28.07.4-.86.19.69zm-.51-.22l-.49-1.72.43-.11.31-.1.25.87zm-.17.37h-.71l-.6-2a6.36 6.36 0 0 0 .78-.08l.57 2zm-5-17.65a4.32 4.32 0 0 1-.69.07v.2c-.25-.9-.48-1.74-.7-2.56a4.07 4.07 0 0 0 .73-.08zm-.52-2.63zm.58 2.83l.67 2.37a4 4 0 0 1-.71.07v.18l-.7-2.54a4.23 4.23 0 0 0 .72-.07zm.72 2.57l.67 2.36a4.49 4.49 0 0 1-.74.07v.18l-.69-2.5a4.26 4.26 0 0 0 .74-.1zm3.34 7.37l.28-.13-.2.37zm.14 2.56l-.41.1-.29-1 .58-.82.46 1.62zm.39.09l.68 2.37-.31.1-.43.1-.68-2.36.41-.1zm-1.22-1.41l-.27-.94.39-.1.36-.12.09.33zm.07-1.23l-.39.1v-.12l-.64-2.24.37-.09.38-.13.64 2.25v.12zm-.75-2.56l-.37.09-.67-2.37.34-.08.39-.13.68 2.37zm-.76-2.56l-.34.09-.67-2.37.32-.08.41-.14.68 2.36zm-.49.33l.67 2.37a5.83 5.83 0 0 1-.76.07v.07l-.69-2.43a5 5 0 0 0 .77-.06zm.73 2.57l.64 2.26v.1a5 5 0 0 1-.79.07l-.67-2.36a5.65 5.65 0 0 0 .79-.09zm.73 2.56l.32 1.12-.58.81-.53-1.86a4.71 4.71 0 0 0 .78-.08zm.44 1.54c.08.27.16.55.24.83a5.29 5.29 0 0 1-.79.07v-.09zm.3 1l.68 2.36a5.61 5.61 0 0 1-.78.07l-.68-2.36a5.89 5.89 0 0 0 .77-.05zm1.15-.33a4.66 4.66 0 0 0 .7-.36l.67 2.37a4.4 4.4 0 0 1-.7.36zm-.06-.2l-.5-1.76.58-.82.63 2.21a4.46 4.46 0 0 1-.72.39zm-.12-2.89a4 4 0 0 1-.62.32v-.1l-.65-2.27a4.39 4.39 0 0 0 .7-.36l.66 2.31zm-.67-2.61a4.32 4.32 0 0 1-.68.36l-.68-2.37a4.26 4.26 0 0 0 .7-.36l.7 2.43zm-.76-2.56a4.09 4.09 0 0 1-.65.35l-.68-2.37a4.87 4.87 0 0 0 .69-.36l.73 2.5zm-.76-2.56a4.32 4.32 0 0 1-.64.34l-.68-2.37a4.39 4.39 0 0 0 .67-.35l.75 2.54zm-.83.42l-.41.14-.31.08-.67-2.37.28-.07.43-.14zm-1.17-2.42l-.28.07c-.24-.82-.46-1.61-.67-2.36h.15l.78.64.45 1.55zm-.41-2.46l.13-.04.07.24zm-.19-.15l-.57-.47-.5-1.79.21-.06.45-.15.69 2.36zm-.91-2.52l-.21.06-.66-2.37h.17l.46-.16.69 2.36a3.94 3.94 0 0 1-.47.13zm-1.06.39a3.89 3.89 0 0 0 .7-.08l.42 1.51-.94-.78zm1.27 2l.08.29a4.29 4.29 0 0 1-.67.07v.19L518 377zm2.74 13.3l.62 2.18-.86 1.22c-3.91-11.94-6.33-18.63-7-20.4l3.24 2.68c1.02 3.74 2.33 8.5 3.99 14.33zm-.24 4.07l.76 2.34a4.19 4.19 0 0 1-.69.4v-.1l-.61-1.9.48-.68zm.83 2.54l.75 2.34a4.21 4.21 0 0 1-.69.39l-.76-2.34a4.63 4.63 0 0 0 .69-.38zM521 395.2l-.24.12L520 393a4.87 4.87 0 0 0 .68-.39l.68 2.09zm-7.05-20.53l-.19-.55a3 3 0 0 0 .39-.31zm.22.54l.46-.25q.31.86.82 2.3a5.08 5.08 0 0 1-.54.3l-.76-2.28zm.07-.27l.15-.66.17.47zm1.3 2.52l.73 2.09c0 .09.06.17.09.26a5.22 5.22 0 0 1-.57.32l-.78-2.33a5.87 5.87 0 0 0 .48-.34zm.88 2.51q.39 1.12.85 2.45l-.08-.12a4.5 4.5 0 0 1-.58.33l-.77-2.33a5 5 0 0 0 .53-.3zm.87 2.51c.27.78.56 1.61.85 2.51l-.11-.16a5 5 0 0 1-.59.34l-.77-2.34a5.16 5.16 0 0 0 .57-.35zm.86 2.52l.85 2.52-.12-.17a4.79 4.79 0 0 1-.61.35l-.77-2.34a5 5 0 0 0 .61-.36zm.85 2.53l.84 2.51-.11-.15a4.27 4.27 0 0 1-.62.36l-.77-2.34a4.72 4.72 0 0 0 .66-.38zm.84 2.53l.82 2.47-.08-.11a4.73 4.73 0 0 1-.65.37l-.76-2.34a4.36 4.36 0 0 0 .63-.39zm-6.57-15.7l.3-.13.28.83v.07l-.43.16h-.06l-.28-.91zm.2 1.13l.3-.11-.17.75-.19-.62zm.85 2.53l.46-.18.66 2 .12.37a4.34 4.34 0 0 1-.45.17l-.16.05-.13-.39-.61-2zm.85 2.53l.45-.17.78 2.34-.45.17-.21.06-.74-2.35zm.85 2.53l.44-.17c.25.73.5 1.51.77 2.34l-.43.16-.25.08-.74-2.35zm.85 2.53l.44-.17.77 2.34-.42.16-.28.08-.75-2.34zm.85 2.53l.42-.16.77 2.34-.41.15-.31.09-.75-2.34zm.84 2.53l.41-.15.76 2.34-.39.15-.34.1-.75-2.34zm.85 2.53l.39-.15.76 2.34-.37.14-.37.1-.75-2.34zm.84 2.53l.37-.14v.08l-.56.79-.2-.63zm.53.34l.56 1.74v.12l-.35.13-.39.11v-.12l-.39-1.19zm.32 2.19l.35-.13.75 2.34-.33.12-.41.12c-.26-.8-.51-1.58-.76-2.34zm.85 2.54l.33-.12.56 1.76-.36.77h-.18l-.76-2.34zM523 403h-.11l.07-.16zm-.67.43zm.44-.12l.3-.11.65 2-.31.11-.42.11-.5-1.54zm.71 2.23l.31-.11.65 2-.31.11-.4.11-.66-2zm.71 2.23l.31-.11.65 2-.31.11-.39.11-.66-2zm.71 2.22l.31-.11.65 2-.31.11-.37.11-.66-2zm.71 2.22l.31-.11.65 2-.31.11-.35.1-.67-2zm.71 2.23l.31-.11.65 2-.31.11-.34.1-.66-2zm.51-.19a5.53 5.53 0 0 0 .63-.33l.63 2a5.23 5.23 0 0 1-.61.32zm-.06-.2l-.65-2a4.82 4.82 0 0 0 .64-.34l.63 2a4.62 4.62 0 0 1-.63.37zm-.71-2.23l-.65-2a5 5 0 0 0 .66-.36l.63 2a4.29 4.29 0 0 1-.7.39zm-.71-2.22l-.65-2a4.56 4.56 0 0 0 .67-.37l.64 2a5.08 5.08 0 0 1-.67.4zm-.71-2.23l-.65-2a4.51 4.51 0 0 0 .68-.37c.21.66.43 1.34.64 2a4.5 4.5 0 0 1-.69.4zm-.72-2.22l-.65-2a4.25 4.25 0 0 0 .68-.38l.64 2a4.45 4.45 0 0 1-.68.41zm-.72-2.23l-.1-.31.48-1 .3 1a4.35 4.35 0 0 1-.69.39zm-.25-.78l-.5-1.56a4.45 4.45 0 0 0 .69-.39l.29.92zm-.48-4.71l-.84-2.6.85-1.2q.81 2.79 1.71 5.87l-.62 1.32q-.57-1.72-1.12-3.36zm1.65 1.09a5.18 5.18 0 0 0 .55 0l-.34.74zm.83.14l.53 1.83a5.17 5.17 0 0 1-.76.07l-.25-.85zm.58 2l.59 2-.37.05h-.37l-.6-2a5.16 5.16 0 0 0 .73.01zm.65 2.25l.59 2a5 5 0 0 1-.73.07l-.6-2a5.12 5.12 0 0 0 .72.02zm.65 2.24l.59 2-.35.05h-.36l-.61-2a4.61 4.61 0 0 0 .71.01zm.65 2.25l.59 2a4.61 4.61 0 0 1-.68.08l-.61-2a4.51 4.51 0 0 0 .69-.02zm.65 2.25l.6 2-.34.05h-.32l-.62-2a5.34 5.34 0 0 0 .67.01zm.66 2.24l.33 1.12-.16 1h-.21l-.62-2a5.07 5.07 0 0 0 .65-.01zm.2 0l.32-.08-.12.76zm.36-.32h-.1l-.32.08-.59-2 .34-.08.31-.1.44 1.59zm-.79-4.44a4.54 4.54 0 0 0 .64-.31l.56 2.06a5 5 0 0 1-.62.3zm-.05-.2l-.58-2a4.7 4.7 0 0 0 .66-.32l.56 2.06a5.23 5.23 0 0 1-.66.33zm-.64-2.25l-.57-2a4.71 4.71 0 0 0 .67-.33l.56 2.05a4.46 4.46 0 0 1-.68.3zm-.63-2.25l-.58-2a4.55 4.55 0 0 0 .68-.34l.57 2a3.9 3.9 0 0 1-.69.36zm-.64-2.25l-.58-2a4.45 4.45 0 0 0 .69-.35l.57 2a4.22 4.22 0 0 1-.69.38zM526 398l-.26-.9.5-1.06.45 1.61a4.1 4.1 0 0 1-.69.35zm-.4-1.39l-.19-.66a4.33 4.33 0 0 0 .64-.32zm-.74-6.23l3.46-4.89 1.78 1.47-3.86 8.28q-.77-2.58-1.43-4.9zm-.12-.42q-1.59-5.55-2.85-9.78l6.17 5.1zm-3.07-9.79l-.11-.17a4.46 4.46 0 0 1-.62.33l-.36-1.23 1 .84zm-1.25-1.65l-.16-.56a5.19 5.19 0 0 0 .65-.34l.52 1.73zm.38-1.08a4.53 4.53 0 0 1-.6.32l-.69-2.37a4.8 4.8 0 0 0 .63-.32q.36 1.19.77 2.53zm-.76-2.56a4.71 4.71 0 0 1-.59.31l-.69-2.36a5 5 0 0 0 .6-.3l.76 2.48zm-.76-2.56a5 5 0 0 1-.58.3l-.7-2.36q.27-.12.56-.28l.66 2.11.08.27zm-.89 0l.11.37a4.41 4.41 0 0 1-.46.16h-.17l-.11-.4-.55-2h.12l.47-.16zm-1.11-2h-.11c-.27-1-.49-1.77-.66-2.37h.07a4.59 4.59 0 0 0 .47-.16l.7 2.36a4.54 4.54 0 0 1-.51.13zm-.82-2.54l-.25-.91h.2l.31-.12.27.9-.46.16zm.46-1.15l.67.69-.41.2zm-1.05 1.48a3.72 3.72 0 0 0 .45-.08l.65 2.37a3.7 3.7 0 0 1-.61.08q-.33-1.3-.54-2.15zm1.78 8.12l-3.09-2.55 1.15-4.9c.29 1.53.97 4.01 1.88 7.41zm-4.68-1.46l.2.63-.32.07zm-.17.93l.43-.09.3 1-.27 1.15-.51-1.74zm6.9 20.24l.26.79-.56.79-.48-1.48a5.37 5.37 0 0 0 .73-.14zm.39 1.19l.34 1v.1a5.23 5.23 0 0 1-.79.1l-.15-.45zm.43 1.35l.76 2.34a5.34 5.34 0 0 1-.78.1l-.76-2.33a6 6 0 0 0 .73-.15zm.82 2.54l.76 2.34a5.08 5.08 0 0 1-.78.1l-.76-2.33a5.77 5.77 0 0 0 .73-.13zm.82 2.54l.08.24-.48 1-.38-1.16a5.25 5.25 0 0 0 .74-.13zm.23.71l.43 1.31-.39.07h-.37l-.13-.39zm.49 1.51l.66 2a5 5 0 0 1-.76.1q-.35-1-.67-2a5.7 5.7 0 0 0 .73-.14zm.73 2.22l.66 2-.37.06h-.37l-.67-2a6.09 6.09 0 0 0 .71-.06zm.73 2.22l.66 2a4.8 4.8 0 0 1-.72.1l-.68-2a5.19 5.19 0 0 0 .7-.14zm.73 2.22l.66 2-.35.06h-.35l-.68-2a5.36 5.36 0 0 0 .65-.1zm.73 2.22l.66 2a4.81 4.81 0 0 1-.68.1l-.68-2a4.76 4.76 0 0 0 .65-.14zm.73 2.22l.67 2-.34.06h-.32l-.69-2a5.24 5.24 0 0 0 .64-.09zm.08 2.33h.34l-.32.1zm2-.54l.27-.14v.1zm0-.31l.06-.4.1.31zm-.37.18h-.06l-.65-2a5.19 5.19 0 0 0 .61-.31l.31 1zm-4.54-17.17l.61-1.31q2 6.78 4.49 15l-.28 1.73q-2.63-8.64-4.82-15.46zm5.1 13h.11v.24zm.46-.06h.17l.6 2-.33.05h-.27l-.33-1.07zm.83 2.22l.47 1.6-.55.16-.52-1.68a4.12 4.12 0 0 0 .6-.17zm1.42 1.32c-.15-.54-.3-1.08-.44-1.6.18-.07.36-.15.55-.25l.44 1.69zM531 416c-.19-.69-.38-1.37-.57-2 .19-.07.38-.16.58-.26l.55 2.06c-.19.01-.37.09-.56.2zm-.63-2.25c-.19-.69-.38-1.38-.57-2a5.34 5.34 0 0 0 .6-.28l.55 2.06a4.87 4.87 0 0 1-.57.18zm-.63-2.25v-.11l.25-1.58.38 1.41a5.51 5.51 0 0 1-.62.24zm-.25-.88l-.33-1.16a5.11 5.11 0 0 0 .55-.26zm-3.17-14.87l4-8.55 2.58 2.13-3.06 19.18q-1.84-7.02-3.51-12.81zm4.14-8.87l2-4.22 1.3 1.34-.79 4.94zm26.82 24.67l-.54.1-.21-1.23h.31l.31-.06.17 1.13zm-3.7-25.34l-.37-2.33a4.86 4.86 0 0 0 .74-.28c.13.79.26 1.59.39 2.42a4.17 4.17 0 0 1-.75.29.88.88 0 0 0 0-.14zm.31-2.81a4.41 4.41 0 0 1-.72.28l-.39-2.43a5.37 5.37 0 0 0 .74-.28c.13.8.27 1.64.41 2.5zm-.45-2.63a4.58 4.58 0 0 1-.69.27c-.14-.84-.27-1.65-.4-2.43a4.9 4.9 0 0 0 .72-.28c.14.82.28 1.68.43 2.56zm-.44-2.67a4.36 4.36 0 0 1-.67.26c-.13-.84-.27-1.65-.39-2.43a5.23 5.23 0 0 0 .71-.27c.14.83.29 1.7.44 2.61zm-.45-2.63a4.47 4.47 0 0 1-.65.25l-.4-2.43a4.75 4.75 0 0 0 .69-.26c.15.83.3 1.7.45 2.62zm-.45-2.63a5.17 5.17 0 0 1-.64.24c-.14-.86-.28-1.67-.4-2.43a5.53 5.53 0 0 0 .66-.25q.22 1.22.46 2.61zm-.45-2.63a5.17 5.17 0 0 1-.62.24c-.15-.87-.28-1.68-.41-2.43a5.36 5.36 0 0 0 .63-.23q.21 1.17.46 2.55zm-.45-2.63a4.54 4.54 0 0 1-.61.23l-.41-2.43a5.35 5.35 0 0 0 .59-.21l.41 2.18v.27zm-.38 2.92a4 4 0 0 1-.47.1h-.21l-.37-2.43h.17a4.7 4.7 0 0 0 .48-.1zm-.43.31l.47-.1.4 2.43-.45.1h-.25l-.38-2.43zm.45 2.63l.46-.1c.13.77.26 1.58.4 2.43l-.44.1h-.29l-.38-2.43zm.45 2.63l.44-.09c.13.78.26 1.59.4 2.43l-.43.09h-.32l-.38-2.43zm.45 2.63l.43-.09.39 2.43-.41.08h-.35l-.38-2.43zm.45 2.63l.41-.08c.13.79.26 1.6.39 2.43l-.39.08h-.38l-.39-2.43zm.45 2.63l.39-.08.37 2.31v.12l-.37.07h-.4v-.12l-.37-2.31zm.45 2.63l.37-.07.09.53-.69-.43zm.52.9c.08.48.15 1 .24 1.46l-.35.07h-.42l-.34-2.12zm-.08 1.74l.34-.07.39 2.43-.32.06-.44.05-.39-2.43zm.44 2.63l.32-.06.34 2.1-.32.06h-.43q-.17-1.07-.34-2.1zm-.07 2.36h.43l.32-.06.19 1.19-.91-.92zm1.84 9h-.36l-.34-2.1h.38l.33-.06.33 2.1zm.36.14l.33 2.1-.32.06h-.35l-.34-2.1h.36zm-.72-2.45h-.39l-.34-2.1.4-.05.33-.06.33 2.1zm-.36-2.31h-.4c-.11-.71-.23-1.41-.34-2.1l.41-.05.33-.06.33 2.1zm.16-2.46s-.01.01-.01-.01zm-.2.09l-.33.06h-.42L554 395l.91.91zm-1.22-1.51c.09.54.18 1.09.26 1.64a5 5 0 0 1-.76 0l-.35-2.09h.39zm.3 1.85l.34 2.1h-.77l-.35-2.09a5.6 5.6 0 0 0 .72-.02zm.38 2.31l.34 2.1a4.53 4.53 0 0 1-.73 0l-.36-2.1a5.35 5.35 0 0 0 .74-.02zm.38 2.31l.35 2.1h-.71c-.12-.71-.24-1.41-.36-2.1a5.6 5.6 0 0 0 .7-.02zm.38 2.31c.11.69.23 1.39.35 2.1h-.3l-.47-.48-.29-1.63a4.44 4.44 0 0 0 .69-.01zm.38 2.31v.18l-.17-.18zm.21 0h.35l.32-.06q.11.69.22 1.4l-.81-.83c-.04-.24-.07-.4-.1-.55zm1 1.87v.12l-.32.06h-.33l-.18-1.05zm-.27.39l.32-.06.11.72-.75-.62zm.51 1.16c0 .29.09.59.14.88l-.32.06h-.31c-.09-.54-.18-1.07-.26-1.6zm.24.21l.58.48-.48.15zm-.08-.5l-.15-1 .76.78.11.81zm.23-1.09l.25-.09c0 .14 0 .27.06.41zm-.16-.17l-.31-.32-.27-1.71a5.1 5.1 0 0 0 .65-.22l.3 2.11a3.22 3.22 0 0 1-.41.1zm-.61-2.23l-.33-2.11a4.54 4.54 0 0 0 .67-.23c.1.7.2 1.4.31 2.11a5.88 5.88 0 0 1-.68.19zm-.36-2.31l-.33-2.1a4.47 4.47 0 0 0 .69-.24l.31 2.11a4.51 4.51 0 0 1-.7.18zm-.36-2.31l-.33-2.1a4.6 4.6 0 0 0 .71-.25l.31 2.11a4.67 4.67 0 0 1-.72.2zm.34-2.57a5.05 5.05 0 0 1-.71.26q-.17-1.07-.33-2.1l.16-.05.7.7zm-.53-2l.21-.08.05.35zm-.16-.16l-.48-.48-.24-1.5a4.71 4.71 0 0 0 .73-.27c.11.69.21 1.39.32 2.1zm-.75-2.18c-.11-.72-.22-1.41-.33-2.1a4.22 4.22 0 0 0 .74-.27q.16 1 .33 2.1a4.37 4.37 0 0 1-.76.21zm-.36-2.31l-.39-2.43a4.39 4.39 0 0 0 .74-.28c.12.79.25 1.6.38 2.43a4.07 4.07 0 0 1-.75.22zm.32-2.92a4.24 4.24 0 0 1-.74.28c-.07-.43-.13-.85-.2-1.26l.87.54zm-1-1.42c0-.25-.08-.49-.12-.73a4.33 4.33 0 0 0 .75-.28c.08.51.16 1 .25 1.55zm.81-1.2c-2-12.52-3.45-20.2-4.06-23.28l13.23 30.66-8.88-5.49zm-3.84-21c-.2.09-.4.16-.58.22l-.42-2.42a5.65 5.65 0 0 0 .53-.19q.15.78.43 2.32zm-.41 2.52l.06.38-.48.1h-.17l-.06-.41-.31-2h.12l.48-.1zm-.39 3.17H549.3v.14c-.13-.92-.25-1.77-.36-2.56a4.7 4.7 0 0 0 .66 0c.07.66.19 1.44.33 2.31zm0 .21c.12.76.24 1.57.38 2.43a3.71 3.71 0 0 1-.68 0v.19l-.38-2.61a4.38 4.38 0 0 0 .72-.12zm.41 2.63l.38 2.43a4.25 4.25 0 0 1-.69 0v.2q-.21-1.38-.39-2.62a4.15 4.15 0 0 0 .7-.11zm.41 2.63l.38 2.43a4.61 4.61 0 0 1-.71 0v.18l-.39-2.6a4.09 4.09 0 0 0 .72-.11zm.42 2.64c.12.78.25 1.59.38 2.43a4.14 4.14 0 0 1-.74 0v.14c-.14-.89-.27-1.74-.39-2.56a4.67 4.67 0 0 0 .75-.11zm.42 2.63l.39 2.43a4.29 4.29 0 0 1-.77 0v.08l-.39-2.5a4.61 4.61 0 0 0 .76-.11zm.38 2.5c.12.75.24 1.53.37 2.32l-.88-.54-.29-1.82a5.23 5.23 0 0 0 .8.04zm-.13 2.42h-.27v-.16zm.35.22l.23.14.37 2.28a4.94 4.94 0 0 1-.79 0l-.39-2.42a4.81 4.81 0 0 0 .61.04zm.63 2.63q.2 1.19.39 2.43a5.21 5.21 0 0 1-.78 0c-.14-.82-.26-1.63-.4-2.42a5.22 5.22 0 0 0 .81.03zm-.35 2.62a5.76 5.76 0 0 0 .78 0l.34 2.1h-.08l-.83-.83zm.56 2.11h-.21v-.23zm1.42 10.8l-7.73-8 .25-8.8 5.54 5.55q.9 5.2 1.96 11.29zm-8.06-8.3l-6.42-6.55c-1.61-6.9-2.64-10.83-2.94-11.94l9.61 9.64zm-2.32 17.87l-.11-.47h.22l.23-.06.1.46zm.08-.67h-.23l-.36-1.54h.24l.23-.06.34 1.55zm-.38-1.7h-.24l-.36-1.54h.26l.24-.06.34 1.54zm-.38-1.7l-.26.05-.35-1.54.27-.05.24-.06.34 1.55zm-.38-1.7l-.27.05-.36-1.54.28-.05.31-.06.34 1.55zm-.38-1.7l-.28.05-.35-1.54.29-.06.24-.06c.11.51.22 1 .34 1.54zm-.37-1.7l-.29.06-.35-1.54.3-.06.24-.06.34 1.55zm-.38-1.7l-.3.06-.35-1.54.32-.06.24-.06c.11.51.23 1 .34 1.55zm-.37-1.7l-.32.06-.35-1.54.33-.06.23-.06.35 1.54zm-.38-1.7l-.33.06-.4-1.78.31-.06.25-.07.4 1.79zm-.45-1.94l-.31.06-.4-1.78.3-.06.27-.07c.13.58.27 1.18.4 1.79zm-5.61-20.86l.13.7s.52 2.9 1.75 8.74l-2.89-3zm4.1 13l-.31.09h-.24l-.4-1.79h.09l.63.64zm0-.81l.57.59-.4.18zm-2.11-6.84h-.13l-.07-.3-.32-1.49h.09l.35-.1.35 1.5.06.28zm.38.06l.42 1.79-.34.1h-.16l-.39-1.79h.12zm-.84-2h-.09l-.38-1.79.36-.1.42 1.78zm.18 2a2.36 2.36 0 0 1-.48 0l-.05-.25-.31-1.56a3 3 0 0 0 .46 0zm0 .16l.39 1.79h-.49v.1c-.14-.68-.27-1.3-.38-1.88a3.26 3.26 0 0 0 .53.12zm.42 1.94l.39 1.79a3.54 3.54 0 0 1-.51 0v.14l-.4-1.92a3.15 3.15 0 0 0 .57.07zm.16 0h.16l.34-.1.41 1.78-.33.09h-.19zm.61 1.9l.34-.1.41 1.79h-.16l-.51-.53c-.09-.4-.18-.8-.26-1.18zm.71 1.87h.07v.13zm-.22-2a3.9 3.9 0 0 0 .5-.22c.15.61.3 1.25.46 1.93l-.07-.13a3.57 3.57 0 0 1-.47.22zm.43-.36a3.34 3.34 0 0 1-.46.21l-.41-1.79a3.56 3.56 0 0 0 .48-.22l.46 1.91zm-.46-1.93a3.25 3.25 0 0 1-.45.21l-.41-1.78a3.79 3.79 0 0 0 .46-.21l.46 1.87zm-.46-1.89l-.45.2-.42-1.78a3.72 3.72 0 0 0 .43-.19l.4 1.6.05.2zm-.9-1.74l-.42-1.78a3.21 3.21 0 0 0 .39-.17l.46 1.76a3.82 3.82 0 0 1-.38.19zm-.46-1.93l-.16-.69a2 2 0 0 0 .35-.23l.2.75a3.22 3.22 0 0 1-.34.16zm-.15.05l-.35.1-.15-.69h.15l.23-.08c.05.15.1.37.17.67zm-.52.29c.1.45.22 1.05.38 1.79a2.83 2.83 0 0 1-.46 0q-.22-1.11-.34-1.78a2.53 2.53 0 0 0 .45-.01zm-.45-.11l-.15-.82a1.39 1.39 0 0 0 .41.07c0 .16.08.4.15.71a3.07 3.07 0 0 1-.36.08zm1.59 7.9a2.88 2.88 0 0 0 .55 0l.21.94-.72-.73c.04-.07.03-.15.01-.21zm.89 1.53v.22a2.84 2.84 0 0 1-.52 0v.15l-.24-1.14zm.09.38l.4 1.79a3.8 3.8 0 0 1-.53 0v.13l-.41-1.92a3.09 3.09 0 0 0 .59 0zm.43 1.94l.4 1.79a4.35 4.35 0 0 1-.55 0v.1l-.41-1.89a2.92 2.92 0 0 0 .6-.01zm.16 0h.24l.31-.09.41 1.78-.3.08h-.26zm.69 1.89l.3-.08.4 1.79-.29.08h-.21l-.08-.07q-.2-.88-.38-1.71zm.74 1.86l.11.5-.49-.4h.09zm.23 1l.15.66v.09l-.27.07-.29.06v-.09l-.31-1.39zm.3.63l-.1-.46.47.39a2.4 2.4 0 0 1-.35.15zm-.22-1l-.16-.71a3.15 3.15 0 0 0 .54-.24l.35 1.56zm.33-1.1a3.13 3.13 0 0 1-.52.24l-.4-1.79a3.61 3.61 0 0 0 .53-.24l.42 1.84zm-.46-1.93a3.21 3.21 0 0 1-.5.23l-.41-1.79a3.5 3.5 0 0 0 .47-.21l.07.08.42 1.78zm-1.22-3.06l-.09-.39a4 4 0 0 0 .51-.23l.33 1.4zm-5.26-5.41l-1.22-1.26 2.16-4.62zm.23.72l3.09 3.18q.55 2.62 1.29 6l-5.16-4.26zm4.38 8.41a3.45 3.45 0 0 0 .58 0l.34 1.52-.73-.6zm.73 1.78h-.32v.05l-.09-.4zm.18.14l.13.11.36 1.59v.08a4.36 4.36 0 0 1-.59 0c-.14-.61-.27-1.2-.4-1.78a4.28 4.28 0 0 0 .5-.05zm.54 1.92l.4 1.79a4.52 4.52 0 0 1-.59 0l-.4-1.78a4 4 0 0 0 .59-.05zm.44 1.94l.4 1.78a3.91 3.91 0 0 1-.58 0l-.41-1.78a4.1 4.1 0 0 0 .59-.04zm.44 1.94l.35 1.54H540.52c-.12-.52-.24-1-.35-1.54a4.91 4.91 0 0 0 .57-.04zm.39 1.7l.35 1.54a3.94 3.94 0 0 1-.57 0l-.36-1.54a3.6 3.6 0 0 0 .57-.05zm.39 1.7l.35 1.54h-.56l-.36-1.54a3.62 3.62 0 0 0 .55-.05zm.39 1.7l.36 1.54a3.68 3.68 0 0 1-.54 0l-.36-1.54a4 4 0 0 0 .52-.05zm.39 1.7l.35 1.54h-.52l-.37-1.54a4.45 4.45 0 0 0 .52-.06zm.39 1.7c.12.51.24 1 .36 1.54a3.51 3.51 0 0 1-.51 0l-.37-1.54a4 4 0 0 0 .5-.06zm.39 1.7l.36 1.54h-.49l-.37-1.54a3.53 3.53 0 0 0 .48-.06zm.39 1.69l.36 1.55a3.51 3.51 0 0 1-.47 0l-.37-1.54a3.67 3.67 0 0 0 .46-.07zm1.26 2l-.1-.47.44-.17.11.53zm-.14-.63l-.34-1.55a3.84 3.84 0 0 0 .46-.18l.32 1.56a4.23 4.23 0 0 1-.46.11zm-.37-1.7l-.34-1.55a3.93 3.93 0 0 0 .47-.19l.32 1.56zm-.37-1.7c-.11-.52-.23-1-.34-1.55a3.61 3.61 0 0 0 .49-.2l.33 1.56a3.5 3.5 0 0 1-.51.14zm-.37-1.7l-.34-1.55a3.76 3.76 0 0 0 .5-.21l.33 1.55a4 4 0 0 1-.52.15zm-.37-1.7l-.34-1.54a3.68 3.68 0 0 0 .51-.22l.33 1.55a3.54 3.54 0 0 1-.53.16zm-.38-1.7c-.11-.52-.23-1-.34-1.54a3.44 3.44 0 0 0 .52-.22l.33 1.55a3.27 3.27 0 0 1-.54.16zm-.38-1.69l-.36-1.61a3.2 3.2 0 0 0 .53-.23l.34 1.55a3.8 3.8 0 0 1-.54.23zm-.38-1.7l-.34-1.54a3.47 3.47 0 0 0 .53-.23l.34 1.54a3 3 0 0 1-.51.17zm-.38-1.7l-.4-1.79a3.51 3.51 0 0 0 .54-.24c.13.58.26 1.18.4 1.79a3.42 3.42 0 0 1-.56.18zm-.44-1.94l-.4-1.79a2.93 2.93 0 0 0 .44-.19l.13.11.36 1.63a3 3 0 0 1-.55.18zm.25-2.25c-.43-1.91-.83-3.67-1.21-5.28l6.24 6.43-.09 2.94zm5.36 1.49l7.85 8.08.28 1.58-8.21-6.79zm8.13 8.44h.1l.74.76.22 1.31-.78-.64zm.54 2.11h-.17v-.15zm.26.21l.32.26c.1.6.2 1.21.3 1.83a5 5 0 0 1-.64 0l-.37-2.1zm.66 2.3l.21 1.26-.6.12c-.08-.46-.16-.92-.25-1.37a4.88 4.88 0 0 0 .61-.08zm1.38 1l.36-.69.09.6zm-.21-.32c0-.29-.09-.58-.13-.86a5.44 5.44 0 0 0 .6-.19v.11zm.45-2.71q-.85-5.94-1.63-11.11l5.47 5.49-3.26 6.18zm-1.72-11.67q-.68-4.48-1.29-8.38l9 5.59 1.08 2.49-3.11 6zm8.25-2.48l1.29.8-.51 1zm.75 2.58l2.55 5.91-1.12 4.44-4.46-4.47zm.2-.39l.63-1.22 3.14 1.94-1.28 5zm.78-1.52l6.9-13.39v.15l-3.84 15.14zm10.9 13.38l-.14-1h.33l.13 1zm0-1.14h-.17l-.17-1.2h.35l.14 1.14zm-.14-1.3h-.18l-.15-1.13h.36c0 .37.09.75.14 1.14zm-.16-1.25h-.19l-.15-1.14h.38l.14 1.14zm-.16-1.25h-.2l-.15-1.14h.39l.14 1.13zm0-1.28h-.39l-.1-.71.43.26c.01.2.03.33.04.46zm-.53-1.08h.39v.31zm.19-.13h-.22l-.15-1.13h.4l.14 1.14zm-.16-1.25h-.23c0-.39-.1-.76-.15-1.14h.4c0 .37.1.75.14 1.13zM573.69 381h.17c0 .11 0 .28.07.5l-.26.05v-.51zm-.17.53v-.06a.34.34 0 0 1 0 .07zm-.31-.22zm.26.34h.06c0 .33.09.77.16 1.31a2 2 0 0 1-.33 0c0-.23 0-.43-.06-.62zm.23 1.42c0 .39.1.82.16 1.31a2.82 2.82 0 0 1-.35 0v-.18c0-.42-.09-.81-.12-1.14a2.45 2.45 0 0 0 .32.01zm.18 1.43c0 .4.1.84.16 1.31h-.35v.08c-.06-.5-.11-1-.15-1.38a2.49 2.49 0 0 0 .34-.01zm.17 1.42c.05.41.11.85.17 1.31a2.15 2.15 0 0 1-.37 0v.1c-.06-.5-.11-1-.16-1.41a1.89 1.89 0 0 0 .36 0zm.18 1.42c.05.42.11.85.17 1.31a2.82 2.82 0 0 1-.38 0v.11c-.06-.5-.11-1-.17-1.42a2.32 2.32 0 0 0 .38 0zm.18 1.43c.05.42.11.86.17 1.31a2.26 2.26 0 0 1-.38 0v.1l-.17-1.41a2.39 2.39 0 0 0 .38 0zm.18 1.42c.05.42.11.86.17 1.31a3.06 3.06 0 0 1-.4 0v.07c-.06-.48-.12-.94-.17-1.39a2.08 2.08 0 0 0 .4.01zm.18 1.42c.05.43.11.86.17 1.31a3.08 3.08 0 0 1-.41 0l-.17-1.35a2.49 2.49 0 0 0 .42.04zM575 393c.05.41.11.82.16 1.25v.06a2.47 2.47 0 0 1-.43 0c-.06-.45-.11-.88-.17-1.31a2.5 2.5 0 0 0 .44 0zm.18 1.42l.17 1.31a3.38 3.38 0 0 1-.42 0l-.17-1.31a3 3 0 0 0 .38.04zm.19 1.43l.17 1.31a2.84 2.84 0 0 1-.42 0c-.06-.44-.12-.88-.17-1.31a3.59 3.59 0 0 0 .38.04zm.18 1.42l.15 1.13H575.29c-.05-.38-.11-.76-.15-1.13a3.18 3.18 0 0 0 .38.04zm.17 1.25c0 .37.1.75.15 1.14a3.05 3.05 0 0 1-.41 0l-.16-1.13a3.35 3.35 0 0 0 .38.03zm.33-.14h-.23l-.15-1.14H576.08l.15 1.13zm-.16-1.25h-.24l-.17-1.31H575.9c.05.43.11.87.17 1.32zm-.2-1.42h-.23l-.17-1.31H575.71c.06.43.12.87.17 1.31zm-.2-1.42h-.22v-.07c-.06-.42-.11-.84-.16-1.25H575.52l.16 1.25a.38.38 0 0 0 0 .07zm-.2-1.42h-.2c-.06-.45-.12-.89-.17-1.31H575.33l.17 1.31zm-.2-1.43h-.19c-.06-.45-.11-.89-.17-1.31h.4l.18 1.31zm-.2-1.42h-.17l-.17-1.31h.4l.17 1.31zm-.2-1.42h-.15c-.06-.46-.11-.9-.17-1.31h.39l.17 1.31zm-.2-1.42h-.14l-.16-1.31h.37q.09.62.18 1.31zm-.2-1.42h-.11c-.06-.47-.11-.91-.16-1.31h.35l.18 1.31zm-.2-1.42H574v-.22c-.05-.4-.09-.76-.13-1.09h.33l.15 1.1v.21zm-.2-1.42h-.07c-.07-.54-.12-1-.16-1.32h.26l.19 1.31zm-.65-.29c.21 2.07.63 6 1.38 11.7q.37 2.83.84 6.25l-5.88-3.58zm2.22 17.13h.41l.15 1.13-.4-.25c-.1-.25-.14-.56-.18-.86zm.62 1.61l.11.79a2.23 2.23 0 0 1-.39 0c-.05-.35-.1-.7-.15-1zm.12.91c0 .37.1.75.15 1.13h-.38c-.05-.39-.11-.76-.16-1.14a2.79 2.79 0 0 0 .37.03zm.17 1.25l.15 1.14a2.62 2.62 0 0 1-.37 0l-.16-1.13a2.57 2.57 0 0 0 .36 0zm.17 1.25l.15 1.13h-.36l-.16-1.13a2.39 2.39 0 0 0 .35.01zm.17 1.25l.16 1.13a2.48 2.48 0 0 1-.34 0c-.06-.38-.11-.76-.17-1.14zm.17 1.25c0 .34.09.68.14 1h-.32q-.08-.54-.16-1.06zm.68 1l-.13-1 .33-.09c0 .35.08.71.12 1.08zm-.14-1.14l-.14-1.14.34-.1.13 1.14zm-.15-1.25c0-.39-.09-.76-.14-1.14a2.41 2.41 0 0 0 .35-.11c0 .38.09.76.13 1.14zm-.15-1.25c0-.38-.1-.76-.14-1.14a2.59 2.59 0 0 0 .37-.11l.13 1.14zm-.16-1.25c0-.38-.09-.76-.14-1.13l.38-.12c0 .37.09.75.13 1.14a2.67 2.67 0 0 1-.4.08zm-.15-1.25v-.3l.33.2zm-.09-.73c0-.13 0-.27-.05-.41a2.42 2.42 0 0 0 .38-.12l.09.8zm-.07-.52c0-.39-.1-.76-.14-1.13a3.07 3.07 0 0 0 .39-.13l.14 1.14a2.33 2.33 0 0 1-.42.09zm-.16-1.25c0-.39-.1-.76-.15-1.13a2.83 2.83 0 0 0 .4-.13c0 .37.09.75.14 1.14a2.19 2.19 0 0 1-.42.09zm-.16-1.25l-.14-1.13a2.87 2.87 0 0 0 .4-.13l.14 1.13a2 2 0 0 1-.43.1zm-.16-1.24c-.05-.45-.11-.89-.17-1.32a2.42 2.42 0 0 0 .4-.13c.06.43.11.87.17 1.31a2.37 2.37 0 0 1-.43.11zm-.18-1.43c-.06-.44-.12-.89-.17-1.31a2.23 2.23 0 0 0 .4-.14c.06.43.11.86.17 1.32a2.31 2.31 0 0 1-.39.1zm-.19-1.42v-.06c-.06-.43-.11-.85-.16-1.26a2.5 2.5 0 0 0 .4-.14l.17 1.31a2.23 2.23 0 0 1-.44.12zm.2-1.56a2.51 2.51 0 0 1-.39.14l-.17-1.31a2.43 2.43 0 0 0 .4-.14l.18 1.35zm-.2-1.42a2.07 2.07 0 0 1-.38.14l-.17-1.31a2.88 2.88 0 0 0 .39-.14l.19 1.38zm-.2-1.42a2.22 2.22 0 0 1-.36.13c-.06-.45-.12-.89-.17-1.31a2.79 2.79 0 0 0 .39-.14l.2 1.41zm-.2-1.42a2.71 2.71 0 0 1-.36.13l-.18-1.31a2.94 2.94 0 0 0 .37-.13l.2 1.42zm-.2-1.42l-.35.12c-.06-.46-.12-.9-.18-1.31a2.48 2.48 0 0 0 .36-.12l.2 1.41zm-.2-1.42l-.34.12-.18-1.31.34-.12.21 1.38zm-.2-1.42l-.33.11c-.07-.49-.13-.92-.18-1.31l.32-.11.18 1.18v.15zm-.53-1.31l-.18-1.31.29-.09.21 1.29zm.09-1.52l-.29.1-.07-.51.16-.07.17.27zm-.09-.94l-.07-.21 12.52 13.26-1.89 3.9zm-24.13-18.6l.11.54a5.39 5.39 0 0 1-.53.19l-.17-.94a2.31 2.31 0 0 0 .4-.22zm-.18 3.42l-.48.1h-.12l-.36-2.43.48-.1c.15.59.29 1.39.45 2.4zm-.41 2.78a4.12 4.12 0 0 1-.65 0v-.34l-.29-2.12a4.44 4.44 0 0 0 .62 0q.09 1.07.3 2.41zm1.84 18.11c0 .13 0 .26.06.38q.48 3 1 6.44l-5.45-5.47.12-4zm-4.65 1.05l-9.88-9.91-.07-.16 10.06 6.22zm-12.09-10.72a1.1 1.1 0 0 0 0 .2 1 1 0 0 0 .08.23l-2.39 5.08-1-1zm-2.44 5.89l-2 4.26-1.74-1.44 2.73-3.85zm-4 2.61l-6.53-5.4c-1.73-5.81-3-9.71-3.63-11.77L531 381.08zm-9.76-15.21a4.65 4.65 0 0 1-.55.28l-.7-2.36c.16-.07.33-.15.5-.25.2.55.45 1.34.75 2.3zm-1.31-3.38l.17-.15.16.5zm-1.55 1.21l-.19-.79a1.72 1.72 0 0 0 .37.06zm-.65-1.83l.23 1s.1.44.32 1.32l-1.26 5.36-.36-.68a1.49 1.49 0 0 0-1.14-2.14l.14-.21-.08-.26 1.9-4.53a1.67 1.67 0 0 0 .24.11zm-2.31 8.69l-.14.76-.22-.8a1.74 1.74 0 0 0 .35.01zm.48 3.66l-3.54 15 3-16.7zm.19.65c1.13 3.82 3 10.13 5.9 18.95l-14.1 19.88 3.29-18zm-8.65 39.51l-1 1.39 3.23-13.68zm.32.14l14.36-20.3.11.34q1 3.11 2.16 6.61l-8.74 18.72q-4.68 1.67-9.53 3.58zm16.79-12.88q2.06 6.25 4.63 13.77-6.32 1.93-13.08 4.33zm7 11.93l.27-1.72.78 2.54-.73.22zm1.3-8.2l3.14-19.73 5.34 4.41.56 2.52c1.13 5 2.54 11.05 4.27 18.15-3.53.87-7.24 1.85-11.1 3q-1.15-4.42-2.22-8.38zm11.46-12.85l4.81 4-.41 13.6-.6.14q-2.14-10.42-3.81-17.77zm5.14 4.25l8.32 6.88c.25 1.4.5 2.83.76 4.29-3 .6-6.13 1.29-9.47 2.08zm11.58 9.76l.07-.13 1 .84-1 .18zm2.16.5l-1.58-1.63L562 403l4.52 4.53-.6 2.38c-1.7.3-3.56.63-5.53 1zm6.44-3.08l1.68 1.68-2.2.36zm.1-.38l1.06-4.21 2.57 6-1.64.25zm1.2-4.74l1.36-5.37 6 3.71q.47 3.37 1.06 7.31c-1.59.21-3.49.46-5.65.78zm9.15-.55l4 2.47-1.63 3.34-1.69.2q-.35-3.2-.69-6.05zm-.05-.43q-.5-4.22-.94-7.58c-.91-7-1.59-11.23-1.84-12.76l10.2 16.3-3.22 6.64zm7.63-3.7l5.6 8.94c-1.46.1-2.89.2-4.25.32l-4.5-2.79zm.17-.36l1.93-4 6.36 6.74-2 6.42h.16-.62zm2.09-4.3l.63-1.29 6.42 5.68-.73 2.31zm6.47 7.34l5.44 5.76c-2.23.11-4.81.25-7.38.42zm.11-.37l.74-2.34 9.32 8.25-4.29.2zm10.81-35v-.53a3.87 3.87 0 0 0 .66.1v2.48h-.36l-.3-.06v-1.33l.17-.55zm.16-5.88a4.07 4.07 0 0 0 .56.06v2.48a3.81 3.81 0 0 1-.61-.09q.01-1.53.04-2.46zm.53 2.76v2.48a3.4 3.4 0 0 1-.64-.1v-.35c0-.8 0-1.52.05-2.16a4.21 4.21 0 0 0 .58.11zm-.08 26.91v2.15l-.4-.06-.36-.08v-2.14a5.56 5.56 0 0 0 .76.12zm-.77-.36v-2.47a5.33 5.33 0 0 0 .78.14v2.48a6 6 0 0 1-.78-.16zm.77 2.72v2.15a4.73 4.73 0 0 1-.75-.14v-2.14a5.57 5.57 0 0 0 .75.11zm0 2.36v2.14l-.37-.05-.36-.08v-2.14a6.1 6.1 0 0 0 .74.11zm0 2.36v2.15a4.56 4.56 0 0 1-.72-.13v-2.14a5.7 5.7 0 0 0 .74.1zm0 2.36v2.15h-.35l-.35-.08v-2.15a4.93 4.93 0 0 0 .73.06zm0 2.36v2.14a4.94 4.94 0 0 1-.68-.12v-2.15a5.31 5.31 0 0 0 .72.11zm0-30.85a3.88 3.88 0 0 1-.67-.11l-.05.18v-2.66a4.25 4.25 0 0 0 .69.11q.06 1.15.05 2.46zm0 .21v2.48a4.34 4.34 0 0 1-.68-.12l-.06.19v-2.67a4.08 4.08 0 0 0 .76.1zm0 2.69v2.48a4.6 4.6 0 0 1-.71-.13l-.05.18v-2.66a3.94 3.94 0 0 0 .77.12zm0 2.69v2.48a4.77 4.77 0 0 1-.73-.14v-2.48a4.32 4.32 0 0 0 .73.13zm0 2.69v2.48a5 5 0 0 1-.75-.14v-2.48a4.78 4.78 0 0 0 .75.13zm0 2.69v2.48a4.84 4.84 0 0 1-.78-.15v-2.47a4.84 4.84 0 0 0 .78.13zm0 2.69v2.48a5.12 5.12 0 0 1-.78-.15v-2.47a5.18 5.18 0 0 0 .78.13zm-.63 19.43a5.19 5.19 0 0 0 .68.11v2.15h-.34l-.32-.06zm-.16 3h-.09l-9.69-8.58 9.72-31c-.08 4.11-.14 9.69-.14 16.77 0 6.42.05 14 .19 22.83zm.21 0v-.65a5.08 5.08 0 0 0 .65.1v.52zm1.19-3.09h-.35v-2.15h.7v2.15zm.33.2v2.15h-.65v-2.15h.68zm-.32-2.55h-.37v-2.15h.72v2.14zm0-2.36h-.39v-2.15h.73v2.14zm0-2.36h-.4v-2.15h.75v2.15zm0-2.36h-.42v-2.15h.76v2.15zm0-2.36h-.43v-2.14h.76v2.15zm0-2.36h-.45v-2.48h.78v2.48zm.51 9.4v-2.15a4.73 4.73 0 0 0 .74-.14v2.15a4.17 4.17 0 0 1-.7.15zm.72.08v2.15a4.9 4.9 0 0 1-.7.13v-2.15a5.41 5.41 0 0 0 .72-.12zm-.68-2.44v-2.14a4.68 4.68 0 0 0 .75-.14v2.15a4.48 4.48 0 0 1-.75.13zm0-2.36v-2.14a4 4 0 0 0 .76-.15v2.15a4.19 4.19 0 0 1-.75.16zm0-2.36v-2.14a4.5 4.5 0 0 0 .77-.15v2.14a4.12 4.12 0 0 1-.75.17zm.78-5v2.49a4.66 4.66 0 0 1-.77.16v-2.49a4.51 4.51 0 0 0 .79-.14zm-.77-.05v-2.49a4.35 4.35 0 0 0 .78-.16v2.48a4.25 4.25 0 0 1-.77.18zm0-2.7v-.11-2.38a4.63 4.63 0 0 0 .78-.16v2.48a4.21 4.21 0 0 1-.77.19zm.75-2.86a4.06 4.06 0 0 1-.75.16v-2.48a4.34 4.34 0 0 0 .77-.16v2.56zm0-2.69a4.16 4.16 0 0 1-.73.16v-2.48a5 5 0 0 0 .76-.16v2.62zm0-2.69a4.85 4.85 0 0 1-.7.15v-2.48a4.77 4.77 0 0 0 .74-.15v2.66zm0-2.69a4.39 4.39 0 0 1-.69.15v-2.48a5.23 5.23 0 0 0 .72-.15v2.68zm0-2.69a4.85 4.85 0 0 1-.67.14v-2.48a5 5 0 0 0 .69-.14v2.67zm-.68 31a5.26 5.26 0 0 0 .7-.12v2.15a5.17 5.17 0 0 1-.68.12c-.12-.7-.12-1.41-.12-2.12zm.66 2.24v2.15a4.68 4.68 0 0 1-.66.11v-2.15a4.82 4.82 0 0 0 .57-.07zm.23-36.11l9.6 30.56-9.66 8.56c.14-8.82.2-16.39.2-22.75-.1-6.82-.16-12.27-.23-16.33zm-.22-.71v1-.14a5.58 5.58 0 0 1-.66.14v-2.48a4.89 4.89 0 0 0 .65-.13v.57l-.28.09zm-.05-1.82a5.32 5.32 0 0 1-.64.13v-2.48a5.08 5.08 0 0 0 .61-.12c0 .67 0 1.41.06 2.24v.28zm-.05-2.69a4.85 4.85 0 0 1-.61.12v-2.48a5.19 5.19 0 0 0 .56-.11c-.11.65-.08 1.48-.05 2.51zm-.59 43.8a5.89 5.89 0 0 0 .65-.1v.66h-.65c-.1-.18-.1-.35-.1-.52zm10.53-7.62l.73 2.34-5.76 6.11-4.29-.2zm.27-.24l6.42-5.68.63 1.29-6.32 6.69zm.57 3l1.94 6.18c-2.57-.17-5.14-.31-7.37-.42zm2.12 6.19h.16l-2-6.42 6.36-6.74 1.93 4-5.81 9.28zM638.31 379h.08l23.06-20.42a1.53 1.53 0 0 0-.24.59 1.49 1.49 0 0 0 .25 1.09l-.3.87-14.07 32.6-1.68 1-7.13-13.84v-.53a.8.8 0 0 0-.05-1.29zm25.2-17.48zm0 0l.64 21.59-4.15 2.58c2.58-15.92 3.49-23.87 3.51-24.13zm33.11 18.9l.74-2.34a3.84 3.84 0 0 0 .55.1v.13c-.17.58-.36 1.23-.57 1.94l-.1.33a4.43 4.43 0 0 1-.62-.12zm-.45 2.61l-.35-.07.74-2.34a3.94 3.94 0 0 0 .65.11l-.75 2.47v-.14zm-1.17 2.51c.27-.83.51-1.61.75-2.34a4.83 4.83 0 0 0 .7.11l-.77 2.51v-.19a4.18 4.18 0 0 1-.68-.09zm-.81 2.54l.75-2.34a4.24 4.24 0 0 0 .72.11q-.37 1.2-.79 2.53v-.2a4.17 4.17 0 0 1-.67-.1zm-.81 2.54l.75-2.34a4.25 4.25 0 0 0 .75.11l-.79 2.51v-.18a4.08 4.08 0 0 1-.7-.1zm-.82 2.54l.75-2.34a4.88 4.88 0 0 0 .76.11l-.78 2.47v-.14a5.35 5.35 0 0 1-.72-.1zm-.82 2.54l.75-2.34a4.75 4.75 0 0 0 .78.1c-.25.78-.51 1.58-.77 2.41v-.08a4.25 4.25 0 0 1-.75-.09zm-23.94 18.86l-.44-.11c0-.16.08-.32.11-.48a3.34 3.34 0 0 0 .47 0zM651.33 411l1.35-1.39.19.37-1.28 1.02zm1.6-1.64l.38-.39c0 .25-.07.5-.11.75l-.06.05zm-19-1.09c0-.34.08-.68.12-1h.33l-.14 1zm.31-1.1h-.17l.14-1.14h.35l-.16 1.13zm.16-1.25h-.17l.14-1.14h.36l-.15 1.13zm.16-1.25h-.17c0-.38.1-.76.14-1.14h.37c-.05.37-.1.75-.15 1.14zm.16-1.25h-.17l.14-1.13h.39l-.15 1.14zm.16-1.25h-.18c0-.14 0-.26.05-.4l.43-.26-.09.71zm-.07-.86V401h.39zm.23-.39h-.18l.14-1.14h.4l-.15 1.13zm.16-1.25h-.18c.05-.38.1-.76.14-1.13h.4l-.15 1.14zm2.5-18.67v.51l-.26-.05.07-.5h.17zm.12.46v.06zm-.17.15l-.16 1.32h-.07l-.26-.05c.08-.54.14-1 .18-1.31zm-.2 1.42h.07l-.13 1.09v.22h-.35v-.21c.06-.4.11-.77.15-1.1zm-.2 1.42h.09l-.16 1.31h-.37c.06-.47.12-.91.18-1.31zm-.2 1.42h.12l-.16 1.31h-.39c.06-.46.12-.9.18-1.31zm-.2 1.42h.15l-.17 1.31h-.39c.06-.46.12-.9.17-1.31zm-.2 1.42h.16l-.17 1.31h-.4c.06-.45.12-.89.18-1.31zm-.2 1.42h.18c-.06.42-.11.86-.17 1.31H636.05c.06-.45.12-.89.17-1.31zm-.2 1.42h.19l-.17 1.31H635.86l.17-1.31zm-.2 1.42h.2c-.05.4-.1.82-.16 1.25v.07H635.68v-.07c.05-.42.11-.84.16-1.25zm-.2 1.42h.21c-.05.43-.11.87-.17 1.31H635.48c.06-.45.11-.88.17-1.31zm-.2 1.43h.23l-.17 1.31H635.3l.17-1.32zm-.2 1.42h.24l-.15 1.14h-.4l.14-1.13zm.19 1.27a3.29 3.29 0 0 0 .42 0c-.05.37-.1.75-.16 1.13a3 3 0 0 1-.41 0zm.23-.12h-.22l.15-1.13a3.17 3.17 0 0 0 .42 0l-.15 1.13zm-.05-1.24c.06-.44.12-.88.17-1.31a3.63 3.63 0 0 0 .43 0q-.08.64-.18 1.31a2.84 2.84 0 0 1-.41.05zm.19-1.42l.17-1.31a3 3 0 0 0 .42 0c-.05.42-.11.86-.17 1.31a3.41 3.41 0 0 1-.43.04zm.19-1.42v-.06l.16-1.25a2.52 2.52 0 0 0 .42 0l-.17 1.31a2.51 2.51 0 0 1-.41.04zm.18-1.42c.06-.45.12-.89.17-1.31a2.46 2.46 0 0 0 .42 0l-.17 1.35a3.08 3.08 0 0 1-.41 0zm.58-1.44a3.05 3.05 0 0 1-.4 0c.06-.45.12-.89.17-1.31a2.07 2.07 0 0 0 .41 0c-.05.45-.11.91-.17 1.39zm.17-1.42a2.24 2.24 0 0 1-.38 0l.16-1.31a2.33 2.33 0 0 0 .4 0c-.05.45-.11.92-.17 1.41zm.17-1.42a2.81 2.81 0 0 1-.38 0c.06-.46.11-.9.17-1.31a2.33 2.33 0 0 0 .39 0l-.17 1.42zm.17-1.42a2.19 2.19 0 0 1-.37 0c.06-.46.11-.9.17-1.31a1.92 1.92 0 0 0 .38 0c0 .44-.1.91-.16 1.41zm.17-1.42h-.36l.16-1.31a2.51 2.51 0 0 0 .36 0c0 .42-.1.88-.15 1.38zm-.18-1.41l.16-1.31a2.49 2.49 0 0 0 .33 0c0 .34-.08.72-.12 1.14v.18a2.77 2.77 0 0 1-.37.01zm.17-1.42l.16-1.31h.06l.17.69-.02.68a2 2 0 0 1-.36 0zm.48-1.65zm-.92-.45l.16.07c0 .12 0 .28-.07.51l-.29-.1v-.23zm.07.7c0 .33-.11.77-.18 1.31l-.32-.11c.09-.54.16-1 .21-1.29zm-.2 1.42l-.18 1.31-.34-.11v-.15l.18-1.18zm-.2 1.42l-.18 1.31-.34-.12v.07c.07-.5.14-1 .21-1.38zm-.19 1.42c-.06.41-.12.85-.18 1.31l-.35-.12v.09l.21-1.41a2.48 2.48 0 0 0 .33.16zm-.19 1.43c-.06.42-.12.85-.18 1.31a2.52 2.52 0 0 1-.35-.13v.1q.1-.74.2-1.42a2.87 2.87 0 0 0 .34.16zm-.19 1.42c-.06.42-.12.86-.17 1.31a2.27 2.27 0 0 1-.37-.13v.09c.07-.49.13-1 .2-1.41a2.75 2.75 0 0 0 .35.17zm-.19 1.42c-.06.42-.12.86-.17 1.31a2.1 2.1 0 0 1-.38-.14v.07l.19-1.38a2.77 2.77 0 0 0 .37.17zm-.19 1.43l-.17 1.31a2.7 2.7 0 0 1-.39-.14l.18-1.35a2.52 2.52 0 0 0 .39.21zm-.19 1.42c-.06.41-.11.83-.16 1.26v.06a2.32 2.32 0 0 1-.41-.14l.17-1.31a2.4 2.4 0 0 0 .41.21zm-.19 1.43c-.06.43-.11.87-.17 1.31a2.26 2.26 0 0 1-.4-.14l.17-1.32a2.29 2.29 0 0 0 .42.18zm-.18 1.43c-.06.43-.11.87-.17 1.32a2.42 2.42 0 0 1-.4-.14c.06-.45.11-.89.17-1.31a2.35 2.35 0 0 0 .41.15zm-.19 1.43c0 .37-.1.75-.15 1.13a2 2 0 0 1-.39-.13c.05-.38.09-.76.14-1.13a3 3 0 0 0 .42.15zm-.16 1.25l-.14 1.13a2.17 2.17 0 0 1-.39-.13l.14-1.14a2.9 2.9 0 0 0 .39.16zm-.16 1.25l-.14 1.13a2.24 2.24 0 0 1-.38-.13c0-.38.09-.77.14-1.14a2.94 2.94 0 0 0 .4.16zm-.14 1.29l-.05.41-.43.27.1-.8a2.32 2.32 0 0 0 .38.12zm-.1.84v.3l-.29-.09zm-.05.41l-.14 1.13a2.73 2.73 0 0 1-.37-.12c0-.38.09-.76.13-1.14zm-.16 1.25c0 .38-.09.75-.14 1.14l-.35-.11c0-.38.09-.76.13-1.14zm-.15 1.25l-.15 1.14-.34-.1c0-.39.09-.77.13-1.14a2.42 2.42 0 0 0 .35.06zm-.16 1.25c0 .37-.09.75-.14 1.14l-.33-.09.13-1.14zm-.15 1.25l-.13 1h-.32c0-.36.08-.72.12-1.08zm.42 1.09l.14-1h.34c-.05.35-.1.7-.16 1.06zm.16-1.13l.16-1.13h.33l-.17 1.14a2.48 2.48 0 0 1-.34-.05zm.35-1.25h-.18l.15-1.13a2.39 2.39 0 0 0 .37 0c-.06.37-.11.75-.16 1.13zm0-1.24q.08-.58.15-1.14a2.6 2.6 0 0 0 .38 0c-.05.37-.11.75-.17 1.13a2.56 2.56 0 0 1-.39-.03zm.36-1.25H635c0-.38.1-.76.15-1.13a2.79 2.79 0 0 0 .39 0l-.16 1.14zm0-1.25c0-.27.07-.53.11-.79l.43-.27-.15 1a2.2 2.2 0 0 1-.44.02zm.2-1.25c.05-.39.1-.76.15-1.13h.41c0 .3-.08.6-.13.9zm1.37-6.58c.75-5.75 1.17-9.63 1.38-11.7l3.58 14.31-5.86 3.62q.48-3.44.85-6.26zm1.47-12.69v-.15l6.9 13.39-3.07 1.9zm7.07 13.54l.63 1.22-2.49 5.76-1.28-5zm.29-.18l1.29-.8-.77 1.8zm.54 1.79l3 5.88-4.45 4.47-1.13-4.44zm.17-.4l1.08-2.49 9-5.59q-.62 3.9-1.3 8.38l-5.72 5.73zm20.49 17.89l.1-.46.23.06h.22l-.11.47zm.36-.56l-.23-.06.34-1.55.23.06h.24l-.36 1.54zm.38-1.7l-.23-.06.34-1.54.24.06h.25l-.36 1.54zm.38-1.7l-.24-.06.34-1.55.24.06.27.05-.35 1.54zm.37-1.7l-.24-.06.34-1.55.24.06.28.05q-.17.76-.35 1.54zm.38-1.7l-.24-.06.34-1.54.24.06.29.06-.35 1.54zm.37-1.7l-.24-.06.34-1.55.24.06.31.06-.35 1.54zm.38-1.7l-.24-.06.34-1.55.24.06.31.06-.35 1.54zm.38-1.7l-.24-.06.34-1.54.23.06.33.06-.35 1.54zm.38-1.7l-.24-.06.4-1.79.25.07.31.06c-.13.58-.26 1.18-.41 1.78zm.45-1.94l-.25-.06c.13-.61.27-1.21.4-1.79l.27.07.3.06-.4 1.78zm5.14-19.12c-.09.45-.2 1-.34 1.78a2.8 2.8 0 0 1-.46 0l.38-1.79a2.52 2.52 0 0 0 .36 0zm-.39-.2c.07-.31.12-.55.15-.71a1.38 1.38 0 0 0 .41-.07l-.15.82a3 3 0 0 1-.47-.04zm-2.3 9.83l-.4 1.79h-.24l-.31-.09.24-1 .63-.64zm-1.1 1.61l-.4-.18.57-.59zm.53-1.61v-.13h.07zm.22-.23h-.16l.41-1.79.34.1h.19l-.26 1.18zm.62-1.89l-.33-.09.41-1.78.34.1h.16l-.39 1.79zm1.33-5.65h.09l-.32 1.49-.07.3h-.12l-.35-.1c0-.09 0-.19.07-.28l.35-1.5zm-.32-.25l.42-1.78.35.1h.05l-.38 1.79h-.09zm-.14 2.19h.13l-.39 1.79h-.16l-.34-.1.41-1.79zm-.14 2a3.16 3.16 0 0 0 .52 0l-.4 1.92v-.14a3.5 3.5 0 0 1-.5 0zm.3-.13h-.26l.39-1.79a3.31 3.31 0 0 0 .49 0l-.38 1.88v-.1zm.16-2l.39-1.79a3 3 0 0 0 .46 0l-.31 1.56c0 .08 0 .16-.05.25a2.39 2.39 0 0 1-.55-.01zm.68-3.91l-.35-.1.16-.68.23.08h.15zm-.55-.16a3.31 3.31 0 0 1-.38-.17l.2-.75a2 2 0 0 0 .35.23zm0 .15l-.42 1.78a3.83 3.83 0 0 1-.42-.19l.46-1.76a3.16 3.16 0 0 0 .29.18zm-.46 1.94l-.42 1.78a4.51 4.51 0 0 1-.44-.2l.05-.2.4-1.6a3.79 3.79 0 0 0 .33.22zm-.45 1.94l-.41 1.78a3.32 3.32 0 0 1-.45-.21l-.05.09.46-1.87a3.83 3.83 0 0 0 .36.21zm-.45 1.94l-.41 1.79a3.17 3.17 0 0 1-.46-.21l-.07.12.46-1.91a3.55 3.55 0 0 0 .4.21zm-.45 1.94l-.41 1.79a3.57 3.57 0 0 1-.47-.22l-.07.13.46-1.93a4.1 4.1 0 0 0 .41.22zm-.44 1.94l-.09.39-.75.78.33-1.4a4.18 4.18 0 0 0 .42.22zm-.92 1.73a3.73 3.73 0 0 0 .47.21l-.41 1.79a3.27 3.27 0 0 1-.51-.23l-.05.09.42-1.78zm0 2.15l-.4 1.79a3.34 3.34 0 0 1-.52-.24c.14-.63.29-1.25.42-1.84a3.48 3.48 0 0 0 .45.28zm-.29 2l.28.08h.09l-.49.4zm-.15-.05l-.16.71-.73.6.35-1.56a3 3 0 0 0 .46.23zm-.28 1.25l-.11.46v.08a2.65 2.65 0 0 1-.35-.15zm.3.66l-.27-.07v-.09l.15-.66.73-.6-.32 1.39v.09zm.66-1.89h-.21l-.29-.08.41-1.79.3.08h.26l-.38 1.71zm.24-2l-.3-.08.41-1.78.31.09h.24l-.4 1.79zm.81-1.72a2.92 2.92 0 0 0 .57 0l-.41 1.89v-.1a4.4 4.4 0 0 1-.55 0zm.57-.13a3.83 3.83 0 0 1-.54 0l.4-1.79a3.1 3.1 0 0 0 .56 0c-.13.61-.27 1.25-.41 1.92zm.41-1.94a2.84 2.84 0 0 1-.52 0l.05-.22.72-.74-.24 1.14zm-.33-.88l.21-.94a2.85 2.85 0 0 0 .54 0v.17zm2.66-9.69l.12-.7 1 6.47-2.89 3c1.22-5.83 1.73-8.76 1.73-8.76zm.51-.41l2.15 4.62-1.22 1.26zm-5.29 12.28l-6.41 6.6-.26-8.89 9.61-9.64c-.34 1.12-1.37 5-2.98 11.94zm-6.73 6.93l-7.73 8q1.06-6.09 1.93-11.31l5.49-5.55zm-10 14.73l-.54-.11v-.09l.17-1.14.31.06h.31c-.14.48-.2.89-.27 1.3zm1-8.4l-.33-.06c.11-.71.22-1.41.33-2.1l.33.06h.38l-.35 2.1zm.33.25c-.11.69-.23 1.39-.35 2.1h-.34l-.32-.06c.11-.71.22-1.41.33-2.1l.32.06zm.48-7.58l.91-.91-.22 1.37h-.42l-.33-.06c.02-.16.04-.26.06-.38zm-.08.55l.33.06.42.05c-.11.69-.23 1.39-.34 2.1h-.4l-.33-.06zm-.17-.26zm.14 2.63l.4.05-.34 2.1h-.38l-.33-.06c.11-.71.22-1.41.33-2.1zm.23 2.37a5.6 5.6 0 0 0 .73 0c-.12.69-.24 1.39-.36 2.1h-.72zm0-.21l.34-2.1a5.32 5.32 0 0 0 .75 0q-.17 1-.36 2.1a4.51 4.51 0 0 1-.71.06zm.76-2.3h-.38l.34-2.1a5.57 5.57 0 0 0 .76 0c-.11.69-.23 1.38-.35 2.09zm0-2.31q.13-.83.27-1.64l.45-.46h.39c-.11.68-.23 1.38-.35 2.09a5 5 0 0 1-.74.03zm-.81-1c.06-.4.12-.8.19-1.19l.33.06h.43v.16zm.54-1.33l-.33-.06c.11-.71.23-1.41.33-2.1l.32.06.44.05-.34 2.1zm.36-2.31l-.32-.06.39-2.43.34.07h.42l-.39 2.43zm.44-2.63l-.34-.07.23-1.46.87-.54c-.11.7-.22 1.4-.34 2.12zm0-2c0-.18.06-.36.08-.53l.37.07h.24zm.88-.62h-.4l-.37-.07v-.12c.12-.79.25-1.56.37-2.31l.39.08h.38c-.12.75-.24 1.52-.37 2.31zm0-2.68l-.39-.08.39-2.43.41.08h.35l-.39 2.43zm.45-2.63l-.41-.08c.14-.84.27-1.65.4-2.43l.43.09h.32c-.12.78-.25 1.59-.38 2.43zm.44-2.63l-.43-.09q.21-1.26.4-2.43l.44.09h.29c-.12.78-.25 1.59-.38 2.43zm.45-2.63l-.44-.1.4-2.43.46.1h.26c-.12.77-.25 1.58-.38 2.43zm.45-2.63l-.46-.1.4-2.43.47.1h.22l-.38 2.43zm.45-2.64a4 4 0 0 1-.47-.1l.4-2.43a4.81 4.81 0 0 0 .48.1h.17l-.37 2.43zm-.23-2.79a4.53 4.53 0 0 1-.62-.23v-.27q.22-1.21.41-2.18a5.34 5.34 0 0 0 .59.21q-.1 1.12-.35 2.47zm0 .21c-.12.75-.26 1.55-.41 2.43a5.12 5.12 0 0 1-.62-.24l-.06.13.46-2.55a5.36 5.36 0 0 0 .62.21zm-.44 2.64l-.4 2.43a5.08 5.08 0 0 1-.64-.24l-.08.17c.16-.92.31-1.79.46-2.61a5.8 5.8 0 0 0 .65.25zm-.44 2.63l-.4 2.43a4.54 4.54 0 0 1-.65-.25l-.09.18.45-2.62a4.8 4.8 0 0 0 .69.26zm-.43 2.64l-.4 2.43a4.51 4.51 0 0 1-.67-.26l-.08.17.44-2.61a5.14 5.14 0 0 0 .7.27zm-.43 2.64l-.39 2.43a4.61 4.61 0 0 1-.69-.27l-.06.13c.15-.89.29-1.74.43-2.56a4.82 4.82 0 0 0 .73.27zm-.43 2.64c-.13.79-.26 1.6-.39 2.43a4.4 4.4 0 0 1-.72-.28v.07c.14-.86.27-1.69.41-2.5a5.25 5.25 0 0 0 .7.27zm-.43 2.64c-.12.76-.25 1.53-.37 2.33v.1a4.08 4.08 0 0 1-.75-.28l.39-2.42a4.6 4.6 0 0 0 .73.26zm-.42 2.64l-.12.73-.87.54c.08-.52.17-1 .25-1.55a4.28 4.28 0 0 0 .73.27zm-.19 1.17l-.2 1.26a4.22 4.22 0 0 1-.74-.28l.07-.44zm-.23 1.47l-.39 2.43a4.09 4.09 0 0 1-.74-.28c.13-.83.26-1.64.38-2.43a4.33 4.33 0 0 0 .75.27zm-.42 2.64l-.33 2.1a4.33 4.33 0 0 1-.73-.27c.11-.71.22-1.41.33-2.1a4.23 4.23 0 0 0 .73.26zm-.37 2.31l-.24 1.5-.48.48-.34-.14c.11-.71.21-1.42.32-2.1a4.67 4.67 0 0 0 .74.25zm-.87 2.14l-.26.26c0-.12 0-.23.05-.35zm.35.12l.16.05-.33 2.1a5.09 5.09 0 0 1-.7-.26l.18-1.19zm-.21 2.36l-.33 2.1a4.59 4.59 0 0 1-.69-.25l.31-2.11a4.46 4.46 0 0 0 .71.25zm-.36 2.3l-.33 2.1a4.53 4.53 0 0 1-.67-.23c.1-.71.21-1.41.31-2.11a4.57 4.57 0 0 0 .69.24zm-.4 2.3l-.32 2.11a6.22 6.22 0 0 1-.66-.22l.31-2.11a4.58 4.58 0 0 0 .67.22zm-.36 2.31c-.09.57-.17 1.13-.26 1.71l-.31.32a3.33 3.33 0 0 1-.38-.14l.3-2.11a5.14 5.14 0 0 0 .69.22zm-.73 2.2l-.31.32c0-.14 0-.27.06-.41zm.36.11l-.15 1-.73.61c0-.27.07-.54.11-.81zm-.21 1.47c0 .21-.07.42-.1.63l-.48-.15zm.42.74l-.31-.06c0-.3.09-.59.14-.88l.75-.62c-.09.53-.18 1.06-.27 1.6zm-.1-1.44l.11-.72.32.06h.32zm.46-.87l-.32-.06v-.12l.8-.83-.18 1.05zm-.21-.76l.22-1.4.32.06h.35l-.08.46zm1.1-1.28h.14l-.17.18zm.33-.2h-.3c.12-.71.23-1.41.35-2.1a4.43 4.43 0 0 0 .71 0c-.09.54-.19 1.09-.29 1.63zm2.41-11.58h-.21l.25-.25zm-.7 0h-.08c.11-.71.23-1.41.34-2.1a5.81 5.81 0 0 0 .78 0l-.21 1.28zm.3-2.31l.39-2.43a5.28 5.28 0 0 0 .79 0c-.13.79-.26 1.6-.4 2.42a5.22 5.22 0 0 1-.78.05zm.42-2.64l.37-2.28.23-.14a4.81 4.81 0 0 0 .59 0l-.39 2.42a5 5 0 0 1-.8.05zm.94-2.64l.3-.18v.16zm-.51-.08l.37-2.32a5.24 5.24 0 0 0 .79 0l-.29 1.82zm.41-2.55l.39-2.43a4.61 4.61 0 0 0 .78 0l-.39 2.5v-.08a4.31 4.31 0 0 1-.78.06zm1.16-2.66a4.19 4.19 0 0 1-.74 0l.38-2.43a4.72 4.72 0 0 0 .77 0l-.39 2.56zm.39-2.63a4.71 4.71 0 0 1-.72 0q.2-1.26.38-2.43a4.06 4.06 0 0 0 .75 0l-.39 2.6zm.39-2.63a4.23 4.23 0 0 1-.69 0c.13-.85.26-1.66.37-2.43a4.15 4.15 0 0 0 .73 0c-.12.83-.25 1.7-.39 2.62zm.39-2.63a3.69 3.69 0 0 1-.68 0c.13-.85.26-1.67.38-2.43a4.35 4.35 0 0 0 .7 0q-.17 1.22-.37 2.61zm.39-2.63H661.39c.14-.87.26-1.68.37-2.43a4.76 4.76 0 0 0 .67 0l-.36 2.56zm-.4-3.06l-.06.41h-.17l-.48-.1c0-.13 0-.26.07-.38l.35-2 .48.1h.12zm-.47-2.41c-.18-.06-.38-.13-.58-.22q.28-1.5.46-2.4c.19.07.36.14.54.19q-.15.97-.41 2.48zM656.77 386c-.1.62-.19 1.25-.3 1.89l-8.88 5.49 13.24-30.66c-.61 3.09-2.05 10.77-4.06 23.28zM655 397.28q-.78 5.17-1.63 11.1l-.62.64-3.22-6.26zM653.37 410a5.34 5.34 0 0 0 .6.19c0 .28-.09.58-.13.87l-.49-.94s.01-.04.02-.12zm.26 1.38l-.44-.09c0-.2.06-.4.09-.6zm1.17.23l.21-1.26a4.86 4.86 0 0 0 .63 0c-.08.45-.16.91-.24 1.37zm.25-1.46l.3-1.83.32-.26h.33l-.37 2.1a5 5 0 0 1-.63.03zm.87-2.3l.2-.16v.15zm-.49 0l.22-1.31.74-.76h.07l-.25 1.43zm1.31-2.43l7.85-8.08.09 2.88-8.23 6.78zm8.18-8.42l6.24-6.43q-.56 2.41-1.21 5.28L665 400zm5.24-.88a2.92 2.92 0 0 0 .44.19l-.4 1.79a3.15 3.15 0 0 1-.54-.24c.12-.56.25-1.1.37-1.63zm0 2.14c-.13.58-.26 1.18-.4 1.79a3.52 3.52 0 0 1-.53-.24q.2-.91.4-1.79a3.52 3.52 0 0 0 .53.24zm-.43 1.94l-.35 1.54a3.08 3.08 0 0 1-.53-.23l.34-1.54a3.45 3.45 0 0 0 .53.24zm-.38 1.7l-.34 1.55a3.77 3.77 0 0 1-.52-.23l.34-1.55a3.23 3.23 0 0 0 .51.23zm-.38 1.7l-.34 1.54a3.21 3.21 0 0 1-.51-.22l.33-1.55a3.41 3.41 0 0 0 .55.23zm-.38 1.7l-.34 1.54a3.7 3.7 0 0 1-.5-.21l.33-1.55a3.58 3.58 0 0 0 .51.22zm-.38 1.7l-.34 1.55a3.79 3.79 0 0 1-.49-.2l.33-1.55a3.85 3.85 0 0 0 .5.2zm-.37 1.7l-.34 1.55a3.65 3.65 0 0 1-.48-.2l.33-1.56a4.06 4.06 0 0 0 .49.21zm-.38 1.7l-.34 1.55-.46-.18.33-1.56a3.89 3.89 0 0 0 .47.19zm-.37 1.7c-.11.51-.23 1-.34 1.55a4.24 4.24 0 0 1-.44-.17l.32-1.56a3.9 3.9 0 0 0 .46.18zm-.37 1.7l-.1.47-.45-.11.11-.53zm.8 0l.35-1.55a3.74 3.74 0 0 0 .49 0l-.37 1.54a3.48 3.48 0 0 1-.48.03zm.64-1.67h-.25l.35-1.54a3.56 3.56 0 0 0 .51 0l-.37 1.54zm.14-1.72c.12-.52.24-1 .35-1.54a4 4 0 0 0 .53 0l-.37 1.54a3.47 3.47 0 0 1-.51.01zm.65-1.67h-.26l.35-1.54a4.42 4.42 0 0 0 .54 0l-.37 1.54zm.13-1.72l.35-1.54a4 4 0 0 0 .55 0l-.36 1.54a3.67 3.67 0 0 1-.54-.02zm.67-1.67h-.28c.12-.52.24-1 .35-1.54a3.61 3.61 0 0 0 .57 0l-.36 1.54zm.11-1.72l.35-1.54a3.59 3.59 0 0 0 .58 0q-.17.76-.36 1.54a4 4 0 0 1-.58.01zm.68-1.67h-.3c.12-.52.24-1 .35-1.54a5 5 0 0 0 .58 0l-.36 1.54zm.09-1.72l.41-1.78a4.1 4.1 0 0 0 .59 0l-.41 1.78a4 4 0 0 1-.6 0zm.44-1.94l.4-1.79a4 4 0 0 0 .59 0c-.13.58-.26 1.17-.4 1.78a4.49 4.49 0 0 1-.6.02zm.44-1.94v-.08l.36-1.59.13-.11a4.26 4.26 0 0 0 .48 0l-.4 1.78a4.36 4.36 0 0 1-.58.01zm.68-1.92l.42-.35-.09.4v-.05zm-.19-.28l.34-1.52a3.44 3.44 0 0 0 .58 0l-.2.9zm2.21-6.73l3.09-3.18.78 4.88-5.16 4.26q.74-3.34 1.29-5.95zm3.38-3.48l1.31-1.34 2 4.22-2.49 2.06zm3.42 3.19l4 8.55q-1.63 5.79-3.51 12.76l-3.06-19.18zm14.46-19.3l-.34-.06.18-.64zm-.55-.11h-.06l-.47-.16.27-.9.31.12h.21c-.07.21-.18.54-.26.95zm-.72-.26l-.41-.2.67-.69zm.13.28a4.51 4.51 0 0 0 .47.16h.06q-.24.9-.65 2.37h-.11a4.72 4.72 0 0 1-.47-.16zm-.62 5.17l.66-2.37a4.23 4.23 0 0 0 .62.09l-.54 2.07-.09.33a4.06 4.06 0 0 1-.65-.11zm3.52 4.93h-.12l-.46-.18.66-2 .26 1.09c-.11.34-.22.7-.35 1.1zm.44-.7l.2.84a3.55 3.55 0 0 1-.43-.09zm-14 41.57l-.31-.11.65-2 .31.11.33.1-.67 2zm-3.63-.91l.44-1.59.3.1.28.07-.47 1.58zm.8-1.7l-.3-.09.57-2.05.3.1.3.08-.6 2zm.63-2.25l-.3-.09c.18-.65.36-1.3.54-1.94l.24 1.5-.18.61zm11.06-38.28l.21.06c-.16.57-.33 1.16-.5 1.79l-.57.47-.28-.1.69-2.36zm-.39-.36l.69-2.36.46.16h.17l-.66 2.37-.21-.06a3.77 3.77 0 0 1-.46-.09zm-8.77 31.89L683 407l.57-2 .32.1.37.09-.59 2zm.3.29l-.59 2-.34-.09-.31-.1.58-2 .31.1zm.33-2.54l-.32-.1.58-2 .32.1.39.09-.59 2zm.63-2.25l-.32-.1.58-2 .31.1.41.1-.59 2zm.63-2.25l-.32-.1.58-2 .31.1.42.1-.59 2zm.63-2.25l-.32-.1.2-.69.4.85zm0-1.28l.25-.87.31.1.43.11-.5 1.72zm1.46-5.89l-.23-.32.28.13zm2.12-5.12l.34.08-.67 2.37-.37-.09-.38-.13.68-2.37zm-.34-.34l.68-2.36.41.14.31.08-.67 2.37-.34-.09zm-.42 2.9l.37.09-.64 2.24v.12l-.39-.1-.36-.12v-.12l.64-2.25zM688 391l.39.1-.27.94-.58-.82.09-.33zm0 1.45l-.29 1-.42-.1-.34-.11.46-1.62zm-.76 1.11l.41.1L687 396l-.43-.1-.31-.1.67-2.37zm-.68 4.67l.57-2a6.47 6.47 0 0 0 .78.08l-.6 2h-.71zm.63-2.17l.68-2.36a5.89 5.89 0 0 0 .79.07c-.22.77-.45 1.56-.68 2.36a5.64 5.64 0 0 1-.81-.13zm.74-2.57l.24-.83.58.81v.09a5.25 5.25 0 0 1-.85-.1zm.36-1.25l.32-1.12a4.67 4.67 0 0 0 .79.08l-.53 1.86zm.38-1.32v-.1l.65-2.26a5.63 5.63 0 0 0 .78.08l-.67 2.36a5 5 0 0 1-.79-.1zm.73-2.56l.6-2.36a5 5 0 0 0 .78.08l-.69 2.43v-.07a5.82 5.82 0 0 1-.72-.11zm.73-2.57l.67-2.36a4.29 4.29 0 0 0 .77.08l-.7 2.5v-.14a4.52 4.52 0 0 1-.77-.1zm.73-2.57l.67-2.37a4.22 4.22 0 0 0 .75.08l-.7 2.54v-.18a4 4 0 0 1-.75-.09zm1.42-2.5a4.33 4.33 0 0 1-.69-.07l.67-2.37a4.05 4.05 0 0 0 .73.08c-.22.81-.45 1.66-.7 2.56zm-.18-2.68zm-.59 0l-.22.19.07-.24zm.39.12h.15l-.67 2.36-.28-.07-.43-.15.45-1.55zm-.85 2.53l.28.07-.67 2.37-.31-.08-.41-.14c.23-.82.46-1.61.68-2.36zm-1.31 2.14a4.38 4.38 0 0 1-.64-.34l-.1.16.75-2.54a4.32 4.32 0 0 0 .67.35zm-.06.2l-.68 2.37a4 4 0 0 1-.66-.35l-.08.12.73-2.5a4.75 4.75 0 0 0 .65.39zm-.74 2.57l-.68 2.37a4.35 4.35 0 0 1-.68-.36v.06l.7-2.43a4.32 4.32 0 0 0 .62.39zm-.73 2.57l-.65 2.27v.1a4.2 4.2 0 0 1-.62-.32l-.07-.1.66-2.31a4.38 4.38 0 0 0 .63.39zm-.91 3.18l-.5 1.76a4.37 4.37 0 0 1-.7-.36c.21-.76.42-1.49.63-2.21zm-.56 2l-.67 2.37a4.34 4.34 0 0 1-.7-.36L686 393a4.66 4.66 0 0 0 .69.34zm-.73 2.57l-.19.66-.45-1a4.33 4.33 0 0 0 .63.33zm-.33 1.15l-.26.9a4.1 4.1 0 0 1-.69-.36l.45-1.6zm-.31 1.1l-.58 2a4.28 4.28 0 0 1-.69-.35l.57-2a4.45 4.45 0 0 0 .66.34zm-.64 2.25l-.58 2a3.82 3.82 0 0 1-.67-.34l.56-2a4.75 4.75 0 0 0 .65.33zm-.64 2.25l-.58 2a4.67 4.67 0 0 1-.66-.33l.56-2.05a4.65 4.65 0 0 0 .64.37zm-.63 2.25l-.58 2a5.18 5.18 0 0 1-.64-.31l.56-2.06a5 5 0 0 0 .62.36zm-.63 2.25l-.57 2.05a4.9 4.9 0 0 1-.62-.3l.56-2.06a4.79 4.79 0 0 0 .58.3zm-.43 2.32l.32.1.34.08c-.2.67-.4 1.35-.6 2l-.32-.08h-.1l-.09-.53zm0 2.43l-.2.68-.12-.76zm-.34 1.92v.18H682zm.22-.76l.33-1.12a5 5 0 0 0 .66.08l-.62 2h-.21zm.72-1.27l-.34-.05.6-2a5.24 5.24 0 0 0 .68.08l-.62 2zm.32-2.3l.59-2a4.48 4.48 0 0 0 .7.08l-.61 2a4.59 4.59 0 0 1-.73-.08zm1-2.2l-.35-.05.59-2a4.66 4.66 0 0 0 .73.08l-.61 2zm.3-2.29l.59-2a5.17 5.17 0 0 0 .74.08l-.61 2a5 5 0 0 1-.76-.1zm1-2.2l-.37-.05.59-2a5.22 5.22 0 0 0 .76.08l-.6 2zm.27-2.3l.53-1.83.49 1-.25.85a5.18 5.18 0 0 1-.79-.02zm.81-2a5.15 5.15 0 0 0 .55 0l-.2.69zm2.19-4.84l.85 1.2-.84 2.6-1.1 3.4-.62-1.32 1.69-5.89zm8.35-19.85a2.66 2.66 0 0 0 .39.31l-.19.55zm0 1.39v.07l-.76 2.28a5.3 5.3 0 0 1-.54-.3c.34-1 .62-1.73.82-2.3zm-.39-.46l.17-.47.16.66zm-.43 3l-.77 2.33a5.6 5.6 0 0 1-.57-.32l.09-.26.74-2.09c.09.15.3.25.47.34zm-.84 2.53l-.77 2.33a4.16 4.16 0 0 1-.58-.33l-.08.12q.45-1.33.85-2.45a4.64 4.64 0 0 0 .54.33zm-.84 2.54l-.77 2.34a5 5 0 0 1-.59-.34l-.11.16c.3-.89.59-1.72.85-2.51a5.42 5.42 0 0 0 .58.35zm-.84 2.54l-.77 2.34a5 5 0 0 1-.6-.35l-.11.17.85-2.52a5.16 5.16 0 0 0 .6.35zm-.9 2.53l-.77 2.34a4.24 4.24 0 0 1-.62-.36l-.11.15.84-2.51a4.55 4.55 0 0 0 .66.38zm-.83 2.54l-.77 2.34a4.57 4.57 0 0 1-.65-.37l-.08.11.82-2.47a4.64 4.64 0 0 0 .71.39zm-.83 2.54l-.76 2.34-.24-.12-.37-.52.69-2.09a4.73 4.73 0 0 0 .71.41zm-.94 2.89l-.61 1.9v.1a4.2 4.2 0 0 1-.69-.4l.76-2.34.1.06zm-.71 2.2l-.76 2.34a4.21 4.21 0 0 1-.69-.39l.76-2.34a4.4 4.4 0 0 0 .72.39zm-1.51 2.16a4.56 4.56 0 0 0 .69.39l-.5 1.56-.48-1zm0 2.42l-.1.31a4.4 4.4 0 0 1-.68-.39l.31-1zm.13.28l.07.16h-.11zm-.3.23l-.65 2a4.49 4.49 0 0 1-.68-.38l.64-2a4.2 4.2 0 0 0 .76.37zm-.72 2.23l-.65 2a4.57 4.57 0 0 1-.64-.39l.64-2a4.49 4.49 0 0 0 .72.38zm-.72 2.22l-.65 2a5.07 5.07 0 0 1-.66-.36l.64-2a4.53 4.53 0 0 0 .75.35zm-.71 2.23l-.65 2a4.57 4.57 0 0 1-.64-.35l.64-2a4.8 4.8 0 0 0 .72.34zm-.71 2.22l-.65 2a4.82 4.82 0 0 1-.63-.33l.64-2a4.83 4.83 0 0 0 .71.32zm-.71 2.23l-.65 2a5.05 5.05 0 0 1-.61-.32l.63-2a6 6 0 0 0 .7.31zm-.14 2.22l-.31-.11.64-2 .31.11.35.1-.67 2zm.71-2.23l-.31-.11.65-2 .31.11.37.11-.67 2zm.71-2.23l-.31-.11.65-2 .31.11.39.11-.66 2zm.71-2.23l-.31-.11.65-2 .31.11.4.11-.66 2zm.71-2.23l-.31-.11.65-2 .31.11.42.12-.66 2zm.71-2.22l-.31-.11.65-2 .3.11.28.6-.5 1.54zm1.07-1.91zm-.11-.24l-.36-.77.57-1.76.33.12.41.11-.76 2.34zm.6-2.61l-.33-.12.76-2.34.35.13.39.11-.76 2.34zm.84-2.53L690 398v-.12l.57-1.74.56.79-.39 1.19v.12zm.38-2.39v-.08l.37.14.37.1-.2.63zm.46-.14l-.37-.14.76-2.34.39.15.34.1-.76 2.34zM692 393l-.39-.15.76-2.34.41.15.31.09-.75 2.34zm.85-2.53l-.41-.15.77-2.34.42.16.28.08-.75 2.34zm.85-2.53l-.42-.16.77-2.34.44.17.25.07L694 388zm.85-2.54l-.44-.16.77-2.34.45.17.21.06-.75 2.35zm.85-2.53l-.45-.17.78-2.34.45.17.17.05-.74 2.34zm.85-2.53a3.81 3.81 0 0 1-.46-.17l.12-.37.65-2 .46.18h.12l-.62 2-.12.39zm1.33-5l.3.11h.06l-.19.62zm-.06-.25v-.06l.28-.84.3.13h.2l-.28.91h-.06zm-7.68 19.34l-.86-1.22.63-2.18c1.66-5.82 3-10.59 4-14.32l3.25-2.68c-.67 1.81-3.1 8.5-7.01 20.44zm3.1-16.14v-.19a4.32 4.32 0 0 1-.67-.07l.08-.29 1-.79zm-.43-1.13l.42-1.51a3.88 3.88 0 0 0 .7.08l-.17.64zm1.13-1.63h-.3l-.35-.06c.24-.85.46-1.64.66-2.37a4 4 0 0 0 .66.09q-.3 1.15-.66 2.5zm.39-5.1h.12l-.55 2-.11.4h-.17a4.4 4.4 0 0 1-.46-.16l.11-.37.59-2zm-1.36 2.12a5 5 0 0 1-.58-.3c0-.09.05-.18.08-.27l.66-2.11a5.69 5.69 0 0 0 .56.28zm-.06.2l-.69 2.36a5 5 0 0 1-.59-.31l-.08.12.76-2.48a5 5 0 0 0 .61.36zm-.75 2.56l-.69 2.37a4.79 4.79 0 0 1-.6-.32l-.1.16c.27-.9.52-1.74.77-2.53a4.9 4.9 0 0 0 .63.37zm-.75 2.57l-.16.56-1 .83.52-1.73a5 5 0 0 0 .65.39zm-.33 1.13l-.36 1.23a4.43 4.43 0 0 1-.62-.33l-.11.17.07-.24zm-4.16 10.86l-3.32-4.69 6.17-5.1q-1.24 4.3-2.83 9.85zm-.11.42q-.67 2.32-1.38 4.86l-3.86-8.28 1.78-1.47zm-4.37 19.07c-.11.39-.22.78-.33 1.16l-.23-1.42a5.61 5.61 0 0 0 .57.31zm-.54 1.94v.11a5.55 5.55 0 0 1-.6-.28l.38-1.41zm-.09.31l-.57 2a5.2 5.2 0 0 1-.58-.27l.55-2.06a5.6 5.6 0 0 0 .61.38zm-.63 2.25c-.19.67-.38 1.36-.57 2a6 6 0 0 1-.55-.25l.55-2.06a6.3 6.3 0 0 0 .59.36zm-.63 2.25c-.15.52-.3 1.06-.45 1.6l-.55-.16.44-1.69c.21.14.4.23.58.3zm.51 1.88l.47-1.6a4.07 4.07 0 0 0 .6.08l-.52 1.68zm.85-1.75l-.33-.05.6-2h.17l.16 1-.33 1.07zm.79-2h.11l-.07.23zM687 400l.61 1.31q-2.18 6.82-4.82 15.38l-.28-1.73Q685 406.81 687 400zm-3.83 16.17a5 5 0 0 0 .61.31l-.64 2h-.06l-.21-1.31zm-.47 2.12l-.16-.09.09-.31zm0 .26v.05l-.3-.09v-.1zm1.66.55h.34v.05zm.09-.2l-.34-.06.67-2a5.28 5.28 0 0 0 .68.11l-.69 2zm.4-2.28l.66-2a4.8 4.8 0 0 0 .7.11l-.69 2a4.77 4.77 0 0 1-.61-.08zm1.08-2.16l-.35-.06c.22-.69.44-1.36.66-2a5.35 5.35 0 0 0 .72.11l-.68 2zm.38-2.28l.66-2a5.18 5.18 0 0 0 .74.1l-.68 2a4.81 4.81 0 0 1-.66-.08zm1.1-2.16l-.37-.06.66-2a6.08 6.08 0 0 0 .75.11l-.67 2zm.36-2.29l.66-2a5.59 5.59 0 0 0 .77.1l-.67 2a5 5 0 0 1-.7-.07zm1.23-2.13l-.4-.07.43-1.31.47 1-.13.39zm.18-1.84l.08-.24a5.27 5.27 0 0 0 .77.1l-.38 1.16zm.14-.44L690 401a5.74 5.74 0 0 0 .78.1l-.77 2.33a5 5 0 0 1-.73-.12zm.82-2.54l.76-2.34a6 6 0 0 0 .79.1l-.76 2.33a5.35 5.35 0 0 1-.83-.09zm.82-2.54v-.1l.34-1 .56.8-.15.45a5.19 5.19 0 0 1-.78-.15zm.5-1.54l.26-.79a5.41 5.41 0 0 0 .78.11l-.48 1.48zm6.43-20.16l.3-1 .43.09.05.28-.51 1.74zm.36-1.16l.2-.63.13.71zm-4.48.82c.91-3.4 1.54-5.88 1.94-7.45l1.15 4.9zm1.29-5.75a3.71 3.71 0 0 1-.61-.08l.65-2.37a3.9 3.9 0 0 0 .45.08l.05.23c-.17.55-.35 1.27-.6 2.13zm.55-3.6a1.77 1.77 0 0 0 .37-.06l-.19.79zm-1.72-.12l.17-.5.17.15zm-.22.71a5.44 5.44 0 0 0 .49.25l-.7 2.36a4.71 4.71 0 0 1-.55-.28c.3-1 .55-1.72.73-2.3zm-4 12.13l-6.53 5.4-2.75-3.88 12.91-13.29c-.68 2.05-1.91 5.95-3.64 11.76zm-6.79 5.62l-1.74 1.44-2-4.26 1-1zM679 382l-2.39-5.13a1.07 1.07 0 0 0 .08-.23 1.43 1.43 0 0 0 0-.2l3.24 4.58zm-4.49-4.75l-9.88 9.91-.11-3.85 10.06-6.22zm-10.21 10.24l-5.44 5.51q.57-3.41 1.05-6.44l.06-.38 4.2-2.6zm-1.78-19.79v.34a4.17 4.17 0 0 1-.65 0q.21-1.36.37-2.43a4.47 4.47 0 0 0 .62 0q-.19.94-.35 2.12zm-.51-2.37h-.12l-.48-.1c.17-1 .31-1.81.42-2.43l.49.1h.06q-.15.95-.38 2.46zm-.19-3.75l-.16.94a4.93 4.93 0 0 1-.53-.19c0-.21.08-.39.11-.54l.19-.42a2.18 2.18 0 0 0 .37.23zm-24.65 18.6l-.06.2-10.61 16.94-1.89-3.9 12.52-13.26zM626.47 398l3.14 6.48-4.5 2.78c-1.35-.11-2.79-.22-4.24-.32zm.21-.34l10.21-16.3c-.25 1.53-.93 5.74-1.84 12.76q-.44 3.36-.94 7.58l-4.2 2.6zm7.37 4.47q-.34 2.82-.69 6l-1.68-.2-1.68-3.31zm1.78-1.1l6-3.71 1.36 5.37-2.78 6.44c-2.16-.32-4.06-.58-5.65-.78q.6-3.93 1.07-7.35zm7.5 2.19l1.07 4.21-2 2-1.65-.25zm1.17 4.59l.52 2-2.19-.36zm.28-.28l4.52-4.53 3.22 6.26-1.58 1.63c-2-.37-3.82-.69-5.55-1zm8.26 2.73l.07.13-.13.89-1-.18zm3.33-2.75l8.31-6.87.39 13.25c-3.34-.79-6.51-1.48-9.47-2.08zm9 6.46l-.41-13.6 4.81-4q-1.65 7.36-3.81 17.72zm6.82-17.53c.2-.87.38-1.7.56-2.52l5.34-4.41 3.14 19.73q-1.07 4-2.21 8.3c-3.86-1.1-7.57-2.08-11.1-3 1.78-7.04 3.19-13.08 4.31-18.09zm9.3 21.81l.78-2.54.27 1.72-.32 1zm8.05-12.75l8.45 18.1q-6.75-2.4-13.08-4.33 2.61-7.5 4.67-13.75zm.16-.47q1.16-3.5 2.16-6.61l.11-.34 14.36 20.29 1.63 9q-4.84-1.91-9.53-3.58zm16.95 13.21l-2.2-12.24 3.22 13.67zm-.46-.65l-14.05-19.89c2.85-8.82 4.77-15.13 5.89-18.95l4.9 20.82zm-8-39.51c.19-.65.36-1.21.49-1.7l3 16.69zm.48-3.66a1.73 1.73 0 0 0 .36 0c0 .14-.11.41-.23.8zm-.09-3.87a1.49 1.49 0 0 0-1.14 2.14l-.36.68-1.22-5.37c.22-.88.32-1.32.32-1.32l.23-1a1.7 1.7 0 0 0 .26-.19l1.9 4.53-.09.26zm-4.4-5.59a1.32 1.32 0 0 0 .08.18l-.43.9-.33 1-13.32 13.76-3.52-5zm-18.77 10h-.2l-.06.25.12.15a1.1 1.1 0 0 0-.81 1.42l-10 6.19-.67-22.54a1.49 1.49 0 0 0-.24-2.25l.12-.06 11.79 16.67zm-12.7-13.2a1.77 1.77 0 0 0 .55-.12l-.13 1.11a3.76 3.76 0 0 1-.56 0q.13-.64.17-.97zm.39 1.2c-.08.61-.18 1.42-.31 2.42a3.37 3.37 0 0 1-.61 0c.15-1 .27-1.81.36-2.43a4.06 4.06 0 0 0 .59.05zm-.6-1.19c0 .22-.08.53-.14.94h-.06l-.48-.11c.07-.4.12-.71.16-.92l.32.08zm-.28-3.84a1.61 1.61 0 0 0-.26.11l.19-.17-.11-.12zm-27.46 24.2l-10.34 11-.61-1.26zm-11.36 9.61l-6.37 5.64-9.9-31.51c-.11-5.28-.23-7.88-.23-7.88l-.07-.39zm-16.7-33.62v1.06l-.55.11v-1a2.44 2.44 0 0 0 .57-.17zm-1.27.26h.54v.94h-.55c.03-.4.04-.72.04-.94zm0 1.16H606v2.48h-.61c.04-1.02.05-1.84.05-2.47zm0 4.76v-2.06h.61v2.48h-.65c.01-.14.01-.28.01-.42zm0 .63h.66v2.48h-.7c-.01-.89 0-1.71 0-2.47zm0 2.69h.7v2.48h-.73c-.03-.87-.03-1.69-.02-2.48zm0 2.69h.73v2.48h-.74c-.06-.86-.06-1.68-.06-2.47zm0 2.69h.74v2.49h-.76c-.06-.86-.06-1.68-.06-2.49zm0 2.69h.76v2.48h-.77q-.08-1.27-.07-2.47zm0 2.69h.77v2.48h-.78c-.08-.86-.08-1.66-.08-2.47zm0 5v-2.35h.78V383.52h-.78zm.41.35h.37v2.48h-.78v-2.48zm-.49-25.45v1a3.54 3.54 0 0 1-.56-.07v-1.13a1.68 1.68 0 0 0 .46.27zm-.7-.91v.56s-.11 2.47-.22 7.47l-10 31.93-6.38-5.65zm-17.77 35.73l-10.34-11 11 9.7zm-37.8-35.16l.17-.18-.1.12.19.17a1.28 1.28 0 0 0-.26-.11zm-.07 3.82l.32-.08.16.92-.48.11h-.06c-.06-.41-.11-.72-.14-.94zm.12 3.62a3.4 3.4 0 0 1-.62 0c-.13-1-.23-1.81-.31-2.42a4.08 4.08 0 0 0 .56 0zm-.54-3.6c0 .22.08.54.14 1a3.74 3.74 0 0 1-.56 0l-.13-1.11a1.77 1.77 0 0 0 .55.11zm-1-3.69l.11.06a1.49 1.49 0 0 0-.24 2.25l-.67 22.54-10-6.19a1.09 1.09 0 0 0 0-.58 1.12 1.12 0 0 0-.84-.84l.12-.15-.06-.25h-.2v-.22zm-13 17.73l-3.53 5-13.34-13.73c-.22-.68-.34-1-.34-1l-.43-.9a1.39 1.39 0 0 0 .08-.18zM485.53 435l25.95-61.85a1.37 1.37 0 0 0 .29.2l.26.95s.12.45.38 1.34l-4.34 23.83-4.92 20.88-7 9.91q-5.25 2.25-10.62 4.74zm94.53-27.1l1.52-3.13 4.09 2.52c-1.6.14-3.07.29-4.28.44zm45.61-.6l4.09-2.52 1.52 3.13-1.33-.16c-1.22-.14-2.68-.29-4.28-.43zm89.53 23l-7-9.91-4.92-20.89-4.34-23.83c.25-.89.38-1.34.38-1.34l.26-.95a1.3 1.3 0 0 0 .29-.2l26 61.85q-5.43-2.52-10.67-4.74z" fill="#cadcd6"/><path d="M82.33 316.07h44V296.7h1.63v-2.23h-1.63v-15.15h-10.18l-10.22-27.78v-2l.85-.85-1-1h-.62v-1.16l-.61-.54v-2.58h.5v-.74h-.5v-1h.5V241h-.5v-5l.25-.26v-1.14h.79v-.67h-.79v-2.18h-1v2.18h-.8v.67h.79v1.16l.25.26v5h-.5v.7h.5v1h-.5v.74h.5V246l-.6.54v1.16h-.62l-1 1 .85.85v2l-10.18 27.77H82.33v15.15h-1.64v2.23h1.63zm28.86-2.89H97.45v-14h13.74zm5.23-14v14h-4.14v-14zm-19-11v-5.08l6.87-9.91 6.87 9.91v5.09l1.21 2.2h-1.21v4.09H97.45v-4.09h-1.2zm-5.23 11h4.14v14h-4.11zm-8.73 50.35h-1.72v2.81h1.75v21.82h41.66V352.3h1.75v-2.81h-1.75V322l2.8-2.8H80.69l2.8 2.8zm15 20H92.7v-1.28h5.81zm-3.88-1.84v-5.83c0-2.94 1-3.18 1-3.18s1 .23 1 3.18v5.83zm4.52-7.25h-1.24v-2.24h-4.52v2.22h-1.28v-3.5h7.09zm-.64-15.11v1.28H92.7v-1.28zm-3.88-.55v-5.83c0-2.94 1-3.18 1-3.18s1 .23 1 3.18v5.83zm4.52-7.25h-1.24v-2.22h-4.52v2.22h-1.28V334h7.09zm8.08 32h-5.81v-1.28h5.81zm-3.88-1.84v-5.83c0-2.94 1-3.18 1-3.18s1 .23 1 3.18v5.83zm4.52-7.25h-1.28v-2.24h-4.52v2.22h-1.29v-3.5h7.09zm-.64-15.11v1.28h-5.81v-1.28zm-3.88-.55v-5.83c0-2.94 1-3.18 1-3.18s1 .23 1 3.18v5.83zm4.52-7.25h-1.28v-2.22h-4.52v2.22h-1.29V334h7.09zm8.08 32h-5.81v-1.28h5.81zm-3.88-1.84v-5.83c0-2.94 1-3.18 1-3.18s1 .23 1 3.18v5.83zm4.52-7.25h-1.24v-2.24h-4.52v2.22h-1.29v-3.5h7.09zm-.64-15.11v1.28h-5.81v-1.28zm-3.88-.55v-5.83c0-2.94 1-3.18 1-3.18s1 .23 1 3.18v5.83zm4.52-7.25h-1.24v-2.22h-4.52v2.22h-1.29V334h7.09zM90.63 324.4H118v1.6h-2.18v4.14h-1.91V326h-1.61v4.14h-1.9V326h-1.61v4.14h-1.91V326h-1.61v4.14h-1.91V326h-1.61v4.14h-1.9V326h-1.61v4.14h-1.91V326h-1.61v4.14h-1.91V326h-2.18zm43.48 101l6 11.7c-2 .75-4 1.56-6 2.4v2.55a226.82 226.82 0 0 1 52.42-14.45c7.28-1.12 13.34-1.73 17.58-2s6.63-.36 6.64-.36 2.4 0 6.64.36 10.3.92 17.57 2a227 227 0 0 1 52.4 14.44v-2.54c-2-.83-4-1.64-6-2.39l6-11.66v-6.55H134.11zm146.38-1.4h5.42l-5.42 10.65zm-1.74 12.17q-3-1.1-6-2.07l6-9.94zM271.33 424h5.33l-5.33 8.94zm-1.74 0v9.09c-1.91-.59-3.81-1.15-5.68-1.68l5.67-7.41zm-7.34 0h5.14l-5.14 6.8zm-1.74 0v6.48q-2.62-.69-5.17-1.31l5-5.17zm-7.22 0h4.91l-4.59 4.76-.32-.07zm-1.74 4.29q-2.22-.5-4.37-.93l4.37-3.34zm-7.18-4.29h4.54l-3.8 2.94-.74-.14zm-4.6 0h2.86v2.47l-2.86-.51zm-1.08 0v1.77c-4.57-.77-8.73-1.34-12.37-1.77zm-55.89 0h12.37c-3.64.42-7.81 1-12.37 1.77zm-3.94 0h2.86v2l-2.86.51zm-1.74 0v2.8l-.74.14-3.8-2.94zm-7.18 0l4.37 3.34q-2.14.44-4.37.93zm-1.74 0v4.69l-.32.07-4.58-4.76zm-7.2 0h.12l5 5.17q-2.55.61-5.17 1.31zm-1.74 0v6.8l-5.16-6.8zm-7.34 0l5.67 7.41c-1.87.53-3.77 1.09-5.68 1.68zm-1.74 0v8.94l-5.34-8.94zm-7.42.16l6 9.94q-3 1-6 2.07zM141 424v10.65L135.58 424zM77.39 320.85l1.12-1.59v-6.82c-1.45 1.46-3.94 3.93-7.43 7.19a411.24 411.24 0 0 1-70 52.22v2.82l.13-.07 7.09 1.11L1.13 386v3.29c5.47-3.33 11.25-7.08 17.19-11.25v40.88H1.13V424h73.48v-5.09H57.52v-74.14a207.08 207.08 0 0 0 19.87-23.92zm-19.87 14c8.49-7.11 14.94-13.11 19.05-17.08a201 201 0 0 1-19.05 23.45zm-4.94 4.08l-4.49 6.57-5.51 1.3c3.55-2.7 6.88-5.34 10-7.87zm-3.75 7.64l4.57-1.08c-3.55 3.58-7.18 7-10.84 10.26zm-10.11 3.14l1.46-1.09 6.89-1.62-8.2 12-.15.13zm-4.54 3.34l-5.64 8.22-6.2.06c4.13-2.77 8.08-5.55 11.84-8.27zm-5 9.43l5.59-.05c-4 3.3-8 6.4-12 9.33zm-9.26.45l.57-.37 7.2-.07-7.77 11.32zm-17 10.67q6.28-3.72 12.16-7.51l-5.95 8.48zM5 384l-1.76 1.11 6.46-9.21 6 .95c-3.62 2.54-7.22 4.93-10.7 7.15zm13.33-9l-1.16.81-6.7-1 7.34-10.45.51-.34zm18.8 43.88h-17.2v-42c5.66-4 11.44-8.42 17.19-13.21zm0-58.43l-.88.74-6.22.05 7.1-10.33zm18.79 58.43h-17.2v-56.55c5.82-4.91 11.6-10.22 17.19-15.91zm0-76l-.93 1-5.13 1.21 6.06-8.88zM338 380.11h1.75v-2.81h-45.18v2.81h1.75v37.61h-5.7v28h53.06v-28H338zm-30.71 37.61H305v-1.4c0-3.56 1.15-3.84 1.15-3.84s1.15.28 1.15 3.84zm1-12.7H304v-6h4.3zm0-7.3H304v-6h4.3zm0-7.3H304v-6h4.3zm13.71 27.3h-9.6v-5.15h1a8.59 8.59 0 0 1 3.81-4.71 8.59 8.59 0 0 1 3.81 4.71h1zm-7.08-18.81s1.38.33 1.38 4.48V405h-2.76v-1.64c-.01-4.13 1.38-4.46 1.38-4.46zm-1.38-1.74v-5.63c0-4.15 1.38-4.48 1.38-4.48s1.38.33 1.38 4.48v5.63zm5.85 1.74s1.38.33 1.38 4.48V405H318v-1.64c0-4.13 1.39-4.46 1.39-4.46zm-1.39-1.75v-5.63c0-4.15 1.38-4.48 1.38-4.48s1.38.33 1.38 4.48v5.63zm5.9-7.89h-1.81v-3.13h-9.88v3.13h-1.81v-4.94h13.5zm5.44 28.45H327v-1.4c0-3.56 1.15-3.84 1.15-3.84s1.15.28 1.15 3.84zm1-12.7H326v-6h4.3zm0-7.3H326v-6h4.3zm0-7.3H326v-6h4.3zm-35.18-74.34h44V296.7h1.63v-2.23h-1.63v-15.15H329l-10.22-27.78v-2l.85-.85-1-1H318v-1.16l-.6-.54v-2.58h.5v-.74h-.5v-1h.5V241h-.5v-5l.25-.26v-1.14h.79v-.67h-.79v-2.18h-1v2.18h-.79v.67h.79v1.16l.25.26v5h-.5v.7h.5v1h-.5v.74h.5V246l-.61.54v1.16h-.62l-1 1 .85.85v2l-10.22 27.78h-10.14v15.15h-1.63v2.23h1.63zm28.84-2.9h-13.71v-14H324zm5.23-14v14h-4.14v-14zm-19-11v-5.08l6.87-9.91 6.9 9.91v5.09l1.21 2.2H324v4.09h-13.71v-4.09h-1.21zm-5.23 11h4.14v14H305zm115.29 75.51v-2.82a411.18 411.18 0 0 1-70-52.22c-3.48-3.25-6-5.72-7.43-7.19v6.82l1.12 1.59a207 207 0 0 0 20.02 23.9v74.13h-17.13v5.1h73.48v-5.09h-17.2V378c5.94 4.17 11.72 7.92 17.19 11.25V386l-7.22-10.28 7.09-1.11zm-21.21-13.32l-6.2-.06-5.64-8.22c3.81 2.69 7.76 5.47 11.89 8.25zm-.48 10.43c-4-2.93-8-6-12-9.33l5.59.05zm-14.3-20.83l7.1 10.33-6.22-.05-.88-.74zm-5.46-4.13l-5.51-1.3-4.49-6.57c3.16 2.49 6.51 5.13 10.05 7.84zm0 8.95c-3.66-3.27-7.29-6.68-10.84-10.26l4.57 1.08zm-13.28-19.59l6.06 8.88-5.13-1.21-.93-1zm-1.61 5a200.9 200.9 0 0 1-19.05-23.45c4.11 4 10.57 10 19.05 17.08zm18.8 77.68h-17.19v-72.46c5.59 5.69 11.37 11 17.19 15.91zm0-59.78l-.15-.13-8.2-12 6.89 1.64 1.46 1.09zm18.8 59.78h-17.19v-55.21c5.76 4.79 11.53 9.19 17.19 13.21zm0-45.08l-7.77-11.32 7.2.07.57.37zm1.6 1.2v-11l.51.34 7.34 10.45-6.7 1zm15.09 10.08l-1.75-1.08c-3.49-2.22-7.09-4.62-10.74-7.16l6-.95zm-5.9-10.52l-5.95-8.48q5.88 3.78 12.16 7.51zM292 310.15h-.76l-1.11-1.34 1.88-2.26v-1.25l-1.91-2.3.69-.83H292V300h-28.8v-1.24h-7.59V300h-38.3v-4.3h.85V294h-2.53v1.67h.85v1.68H213l-.29-1.84-1.35-1.08v-1.68h.76v-.86h-.76V289h-1.3v2.92h-.76v.86h.76v1.68l-1.35 1.08-.29 1.84H205v-1.68h.85V294h-2.53v1.67h.85V300h-38.3v-1.24h-7.59V300H129.5v2.18h1.19l.69.83-1.88 2.26v1.25l1.88 2.26-1.11 1.34h-.77v5.92H292zm-136-7.94l-.17.2-.17-.2zm1.7 3.72l-1.87 2.26-1.83-2.26 1.88-2.26zm-5.45-3.72h2.37l.69.83-1.87 2.26-1.87-2.3zm.67 3.72l-1.92 2.26-1.87-2.26 1.87-2.26zm-1.71-3.72l-.17.2-.17-.2zm-3.75 0h2.37l.69.83-1.87 2.26-1.87-2.3zm.66 3.72l-1.87 2.26-1.87-2.26 1.87-2.26zm-1.71-3.72l-.17.2-.17-.2zm-3.75 0H145l.69.83-1.88 2.26L142 303zm.67 3.72l-1.87 2.26-1.88-2.26 1.88-2.26zm-1.7-3.72l-.17.2-.17-.2zm-3.75 0h2.37l.69.83-1.88 2.26-1.86-2.3zm.66 3.72l-1.88 2.26-1.87-2.26 1.87-2.26zm-1.71-3.72l-.17.2-.17-.2zm-3.75 0h2.37l.69.83-1.87 2.26-1.86-2.3zm-1 0l-.17.2-.17-.2zm-2 3.72l1.87-2.26 1.87 2.26-1.87 2.26zm1.28 4.22l.59-.71.59.71zm2.23 0l-1.11-1.34 1.88-2.26 1.88 2.26-1.11 1.34zm2.56 0l.59-.71.59.71zm2.23 0l-1.11-1.34 1.87-2.26 1.88 2.26-1.11 1.34zm2.56 0l.6-.71.59.71zm2.23 0l-1.17-1.34 1.87-2.26 1.88 2.26-1.11 1.34zm2.57 0l.59-.71.59.71zm2.22 0l-1.11-1.34 1.88-2.26 1.87 2.26-1.11 1.34zm2.56 0l.59-.71.59.71zm2.23 0l-1.11-1.34 1.87-2.26 1.87 2.26-1.11 1.34zm2.56 0l.59-.71.59.71zm3 0h-.81l-1.11-1.34 1.88-2.26.05.06zm0-4.91l-.05.06-1.91-2.3.69-.83h1.24zm43.67-3l-.17.2-.17-.2zm1.7 3.72l-1.88 2.26-1.88-2.26 1.88-2.26zm-5.46-3.72h2.37l.69.83-1.87 2.26-1.9-2.33zm.67 3.72l-1.89 2.23-1.87-2.26 1.87-2.26zm-1.7-3.72l-.17.2-.17-.2zm-3.75 0h2.37l.69.83-1.88 2.26-1.9-2.33zm.67 3.72l-1.87 2.26-1.87-2.26 1.87-2.26zm-1.71-3.72l-.17.2-.17-.2zm-3.75 0H191l.69.83-1.88 2.26-1.88-2.33zm.66 3.72l-1.88 2.26-1.88-2.26 1.88-2.26zm-1.7-3.72l-.17.2-.17-.2zm-3.75 0h2.37l.69.83-1.92 2.23-1.86-2.3zm.66 3.72l-1.87 2.26-1.87-2.26 1.87-2.26zm-1.7-3.72l-.17.2-.17-.2zm-3.75 0h2.37l.69.83-1.88 2.26-1.89-2.33zm.66 3.72l-1.87 2.26-1.86-2.29 1.87-2.26zm-1.73-3.75l-.17.2-.17-.2zm-3.75 0h2.37l.69.83-1.87 2.26-1.87-2.3zm.67 3.72l-1.92 2.26-1.88-2.26 1.88-2.26zm-1.7-3.72l-.17.2-.17-.2zm-3.75 0h2.37l.69.83-1.88 2.26-1.87-2.3zm.67 3.72l-1.88 2.26-1.88-2.26 1.88-2.26zm-1.71-3.72l-.17.2-.17-.2zm-2.56 0h1.19l.69.83-1.87 2.26zm0 7.94v-3.6l1.88 2.26-1.11 1.34zm1.8 0l.59-.71.59.71zm2.23 0l-1.11-1.34 1.88-2.26 1.88 2.26-1.11 1.34zm2.57 0l.59-.71.59.71zm2.22 0l-1.11-1.34 1.87-2.26 1.87 2.26-1.11 1.34zm2.57 0l.59-.71.59.71zm2.22 0l-1.11-1.34 1.87-2.26 1.88 2.26-1.12 1.34zm2.56 0l.59-.71.59.71zm2.23 0l-1.11-1.34 1.87-2.26 1.88 2.26-1.12 1.34zm2.56 0l.59-.71.6.71zm2.22 0l-1.11-1.34 1.87-2.26 1.87 2.26-1.11 1.34zm2.57 0l.59-.71.59.71zm2.22 0l-1.11-1.34 1.87-2.26 1.88 2.26-1.11 1.34zm2.56 0l.59-.71.59.71zm2.22 0l-1.11-1.34 1.88-2.26 1.87 2.26-1.11 1.34zm2.57 0l.59-.71.59.71zm3 0h-.76l-1.11-1.34 1.87-2.26zm0-4.85l-1.89-2.3.69-.83h1.19zm49.22-3.09l-.17.2-.17-.2zm1.7 3.72l-1.88 2.26-1.87-2.26 1.87-2.26zm-5.45-3.72H252l.69.83-1.88 2.26-1.86-2.3zm.67 3.72l-1.87 2.26-1.87-2.26 1.87-2.26zm-1.71-3.72l-.17.2-.17-.2zm-3.75 0h2.37l.69.83-1.93 2.26-1.84-2.3zm.66 3.72l-1.88 2.26-1.87-2.26 1.87-2.26zm-1.7-3.72l-.17.2-.17-.2zm-3.75 0h2.37l.69.83-1.87 2.26-1.9-2.3zm.67 3.72l-1.88 2.26-1.87-2.26 1.87-2.26zm-1.75-3.72l-.17.2-.17-.2zm-3.75 0h2.37l.69.83-1.87 2.26-1.86-2.3zm.66 3.72l-1.88 2.26-1.87-2.26 1.87-2.26zm-1.7-3.72l-.17.2-.17-.2zm-3.75 0h2.37l.69.83-1.87 2.26-1.86-2.3zm.67 3.72l-1.87 2.26-1.88-2.26 1.88-2.26zm-1.71-3.72l-.17.2-.17-.2zm-3.75 0h2.37l.69.83-1.87 2.26L225 303zm.66 3.72l-1.87 2.26-1.87-2.26 1.87-2.26zm-1.7-3.72l-.17.2-.17-.2zm-3.75 0h2.37l.69.83-1.87 2.26-1.85-2.3zm.67 3.72l-1.87 2.26-1.87-2.26 1.87-2.26zm-1.7-3.72l-.17.2-.17-.2zm-2.56 0h1.19l.69.83-1.87 2.26zm0 7.94v-3.6l1.87 2.26-1.11 1.34zm1.8 0l.59-.71.59.71zm2.23 0l-1.11-1.34 1.87-2.26 1.87 2.26-1.11 1.34zm2.56 0l.59-.71.59.71zm2.22 0l-1.1-1.34 1.88-2.26 1.87 2.26-1.11 1.34zm2.57 0l.59-.71.59.71zm2.22 0l-1.11-1.34 1.88-2.26 1.87 2.26-1.11 1.34zm2.57 0l.59-.71.59.71zm2.22 0l-1.11-1.34 1.88-2.26 1.87 2.26-1.11 1.34zm2.57 0l.59-.71.59.71zm2.22 0l-1.11-1.34 1.87-2.26 1.87 2.26-1.1 1.34zm2.57 0l.59-.71.59.71zm2.22 0l-1.11-1.34 1.88-2.26 1.87 2.26-1.11 1.34zm2.56 0l.59-.71.59.71zm2.23 0l-1.11-1.34 1.88-2.26 1.87 2.26-1.11 1.34zm2.56 0l.59-.71.59.71zm3 0h-.77l-1.11-1.34 1.88-2.26zm0-4.85l-1.88-2.3.69-.83h1.19zm35.84.63l-1.87 2.26-1.88-2.26 1.88-2.26zm-1.7-3.72l-.17.2-.17-.2zm-3.75 0h2.37l.69.83-1.87 2.26-1.88-2.3zm.67 3.72l-1.88 2.26-1.87-2.26 1.87-2.26zm-1.7-3.72l-.17.2-.17-.2zm-3.75 0h2.37l.69.83-1.87 2.26-1.89-2.3zm.67 3.72l-1.89 2.26-1.88-2.26 1.88-2.26zm-1.71-3.72l-.17.2-.18-.2zm-3.75 0h2.37l.69.83-1.87 2.26-1.88-2.3zm.66 3.72l-1.88 2.26-1.88-2.26 1.88-2.26zm-1.71-3.72l-.17.2-.17-.2zm-3.75 0H274l.69.83-1.87 2.26L271 303zm.67 3.72l-1.88 2.26-1.88-2.26 1.88-2.26zm-1.71-3.72l-.17.2-.17-.2zm-3.75 0h2.37l.69.83-1.9 2.26-1.84-2.3zm.66 3.72l-1.87 2.26-1.87-2.26 1.87-2.26zm-1.7-3.72l-.17.2-.17-.2zm-2.61 0h1.24l.69.83-1.87 2.26-.05-.06zm0 7.94v-3.53l.05-.06 1.87 2.26-1.11 1.33zm1.85 0l.59-.71.59.71zm2.22 0l-1.11-1.34 1.88-2.26 1.87 2.26-1.11 1.34zm2.56 0l.59-.71.59.71zm2.23 0l-1.11-1.34 1.87-2.26 1.87 2.26-1.11 1.34zm2.57 0l.59-.71.59.71zm2.23 0l-1.11-1.34 1.87-2.26 1.87 2.26-1.11 1.34zm2.56 0l.59-.71.59.71zm2.23 0l-1.11-1.34 1.88-2.26 1.87 2.26-1.11 1.34zm2.57 0l.59-.71.59.71zm2.22 0l-1.11-1.34 1.87-2.26 1.87 2.26-1.06 1.34zm2.56 0l.59-.71.59.71zm7.34 39.34h-1.75v2.81h1.75v21.82H338V352.3h1.75v-2.81H338V322l2.8-2.8h-47.27l2.8 2.8zm15 20h-5.81v-1.28h5.81zm-3.88-1.84v-5.83c0-2.94 1-3.18 1-3.18s1 .23 1 3.18v5.83zm4.53-7.25h-1.28v-2.2h-4.52v2.22h-1.28v-3.5h7.1zm-.64-15.11v1.28h-5.81v-1.28zm-3.88-.55v-5.83c0-2.94 1-3.18 1-3.18s1 .23 1 3.18v5.83zm4.53-7.25h-1.29v-2.22h-4.52v2.22h-1.28V334h7.1zm8.07 32h-5.81v-1.28h5.81zm-3.88-1.84v-5.83c0-2.94 1-3.18 1-3.18s1 .23 1 3.18v5.83zm4.53-7.25h-1.29v-2.2h-4.52v2.22h-1.28v-3.5h7.09zm-.64-15.11v1.28h-5.81v-1.28zm-3.88-.55v-5.83c0-2.94 1-3.18 1-3.18s1 .23 1 3.18v5.83zm4.53-7.25h-1.29v-2.22h-4.52v2.22h-1.28V334h7.09zm8.07 32H323v-1.28h5.81zm-3.88-1.84v-5.83c0-2.94 1-3.18 1-3.18s1 .23 1 3.18v5.83zm4.53-7.25h-1.29v-2.2h-4.52v2.22h-1.28v-3.5h7.09zm-.64-15.11v1.28H323v-1.28zm-3.88-.55v-5.83c0-2.94 1-3.18 1-3.18s1 .23 1 3.18v5.83zm4.53-7.25h-1.29v-2.22h-4.52v2.22h-1.28V334h7.09zm-26-13.1h27.37V326h-2.18v4.14h-1.91V326h-1.61v4.14h-1.91V326h-1.61v4.14h-1.91V326h-1.61v4.14h-1.88V326h-1.61v4.14h-1.91V326h-1.61v4.14h-1.91V326h-1.61v4.14h-1.91V326h-2.18zM82.33 276.14h10.16l-4.37-16.23V258h.57v-.7h-.75v-1.94h1.75v-.76h-1.75v-2.1l.48-.52-1-1.64-1 1.64.48.52v2.08h-1.79v.76h1.75v1.94h-.76v.7h.52v2.19zm42.82 104h1.75v-2.84H81.74v2.81h1.75v37.61h-5.7v28h53.06v-28h-5.7zm-30.71 37.58h-2.31v-1.4c0-3.56 1.15-3.84 1.15-3.84s1.15.28 1.15 3.84zm1-12.7h-4.3v-6h4.3zm0-7.3h-4.3v-6h4.3zm0-7.3h-4.3v-6h4.3zm13.63 27.3h-9.59v-5.15h1a8.59 8.59 0 0 1 3.81-4.71 8.59 8.59 0 0 1 3.81 4.71h1zm-7-18.81s1.38.33 1.38 4.48V405h-2.75v-1.64c0-4.13 1.38-4.46 1.38-4.46zm-1.38-1.74v-5.63c0-4.15 1.38-4.48 1.38-4.48s1.38.33 1.38 4.48v5.63zm5.85 1.74s1.38.33 1.38 4.48V405h-2.76v-1.64c.01-4.13 1.4-4.46 1.4-4.46zm-1.38-1.74v-5.63c0-4.15 1.38-4.48 1.38-4.48s1.38.33 1.38 4.48v5.63zm5.89-7.89h-1.81v-3.13h-9.86v3.13h-1.81v-4.94h13.5zm5.44 28.45h-2.29v-1.4c0-3.56 1.15-3.84 1.15-3.84s1.15.28 1.15 3.84zm1-12.7h-4.3v-6h4.3zm0-7.3h-4.3v-6h4.3zm0-7.3h-4.3v-6h4.3zM329 276.14h10.16l-4.3-16V258h.52v-.7h-.75v-1.94h1.75v-.76h-1.75v-2.1l.48-.52-1-1.64-1 1.64.48.52v2.08h-1.75v.76h1.75v1.94h-.75v.7h.57v1.94zm-33.83 0h10.16l-4.3-16V258h.52v-.7h-.75v-1.94h1.75v-.76h-1.75v-2.1l.48-.52-1-1.64-1 1.64.48.52v2.08H298v.76h1.75v1.94H299v.7h.57v1.94zm-179 0h10.16l-4.37-16.23V258h.57v-.7h-.75v-1.94h1.75v-.76h-1.75v-2.1l.48-.52-1-1.64-1 1.64.48.52v2.08h-1.75v.76h1.75v1.94h-.75v.7h.52v2.19zm205.29 13.35c0-3.3-1.1-3.57-1.1-3.57s-1.1.26-1.1 3.57v4.19h2.2zM307.27 389c0-3.56-1.15-3.84-1.15-3.84s-1.12.3-1.12 3.84v.63h2.31zm0 7.3c0-3.55-1.15-3.84-1.15-3.84s-1.15.28-1.15 3.84v.63h2.31zm11-91.64c0-3.3-1.1-3.57-1.1-3.57s-1.1.26-1.1 3.57v6.55h2.2zm-3.19 0c0-3.3-1.1-3.57-1.1-3.57s-1.1.26-1.1 3.57v6.55h2.2zm-7.79 98.94c0-3.55-1.15-3.84-1.15-3.84s-1.15.28-1.15 3.84v.63h2.31zm11-114.12c0-3.3-1.1-3.57-1.1-3.57s-1.1.26-1.1 3.57v4.19h2.2zm3.19 15.18c0-3.3-1.1-3.57-1.1-3.57s-1.1.26-1.1 3.57v6.55h2.2zm6.83 0c0-3.3-1.1-3.57-1.1-3.57s-1.1.26-1.1 3.57v6.55h2.2zm1.06 91.64c0-3.55-1.15-3.84-1.15-3.84s-1.15.28-1.15 3.84v.63h2.31zm-14.31-106.81c0-3.3-1.1-3.57-1.1-3.57s-1.1.26-1.1 3.57v4.19h2.2zM329.34 389c0-3.56-1.15-3.84-1.15-3.84s-1.19.3-1.19 3.84v.63h2.31zm-22.21-87.91s-1.1.26-1.1 3.57v6.55h2.2v-6.55c0-3.29-1.1-3.55-1.1-3.55zm22.21 102.51c0-3.55-1.15-3.84-1.15-3.84s-1.15.28-1.15 3.84v.63h2.31zm-220.73-98.93c0-3.3-1.1-3.57-1.1-3.57s-1.1.26-1.1 3.57v6.55h2.2zM94.44 389c0-3.56-1.15-3.84-1.15-3.84s-1.15.28-1.15 3.84v.63h2.31zm0 14.6c0-3.55-1.15-3.84-1.15-3.84s-1.15.28-1.15 3.84v.63h2.31zm11-98.94c0-3.3-1.1-3.57-1.1-3.57s-1.1.26-1.1 3.57v6.55h2.2zm-11 91.64c0-3.55-1.15-3.84-1.15-3.84s-1.15.28-1.15 3.84v.63h2.31zm22.07 0c0-3.55-1.15-3.84-1.15-3.84s-1.15.28-1.15 3.84v.63h2.31zm0-7.3c0-3.56-1.15-3.84-1.15-3.84s-1.15.28-1.15 3.84v.63h2.31zm0 14.6c0-3.55-1.15-3.84-1.15-3.84s-1.15.28-1.15 3.84v.63h2.31zM94.29 301.11s-1.1.26-1.1 3.57v6.55h2.2v-6.55c.01-3.31-1.1-3.57-1.1-3.57zm7.94 3.57c0-3.3-1.1-3.57-1.1-3.57s-1.1.26-1.1 3.57v6.55h2.2zm6.38-15.18c0-3.3-1.1-3.57-1.1-3.57s-1.1.26-1.1 3.57v4.19h2.2zm6.83 15.18c0-3.3-1.1-3.57-1.1-3.57s-1.1.26-1.1 3.57v6.55h2.2zm-10-15.18c0-3.3-1.1-3.57-1.1-3.57s-1.1.26-1.1 3.57v4.19h2.2zm-3.19 0c0-3.3-1.1-3.57-1.1-3.57s-1.1.26-1.1 3.57v4.19h2.2zM453.15 205.61a16.58 16.58 0 1 0 16.59 16.59 16.59 16.59 0 0 0-16.59-16.59zm0 32a15.37 15.37 0 1 1 15.36-15.37 15.38 15.38 0 0 1-15.36 15.32zm35-44.74V171.7l-1.38 2.06v6.52a5.37 5.37 0 0 0-3.3-2.56v-3.79H423v3.79a5.42 5.42 0 0 0-3.31 2.56v-6.52l-1.37-2.06v77.07l3.63 10h62.65l3.6-10v-56zM423 188.55h-3.31V183a5.85 5.85 0 0 1 3.31-3.83zm43.38-8.17c.58-3.38 2.56-4 2.56-4s2 .58 2.56 4v8.17h-5.12zm-7.89 0c.58-3.38 2.56-4 2.56-4s2 .58 2.56 4v8.17h-5.12zm-7.89 0c.58-3.38 2.56-4 2.56-4s2 .58 2.56 4v8.17h-5.12zm-7.89 0c.58-3.38 2.56-4 2.56-4s2 .58 2.56 4v8.17h-5.13zm-7.89 0c.58-3.38 2.56-4 2.56-4s2 .58 2.56 4v8.17h-5.12zm-7.89 0c.58-3.38 2.56-4 2.56-4s2 .58 2.56 4v8.17h-5.12zM479 246.32h-51.69v-48.25H479zm.4-57.77h-5.12v-8.17c.58-3.38 2.56-4 2.56-4s2 .58 2.56 4zm7.39 0h-3.3v-9.36a5.85 5.85 0 0 1 3.3 3.83zm-65.85-35.49v12.59h-.67l2.57 3.74h60.82l2.57-3.74h-.68v-12.59a1.3 1.3 0 0 0 .83-1.22 1.25 1.25 0 1 0-2.5 0 1.31 1.31 0 0 0 .8 1.2v12.6h-2.36a43.48 43.48 0 0 1-11.91-25.3v-29.88a1.29 1.29 0 0 0 .83-1.2 1.25 1.25 0 1 0-2.49 0 1.3 1.3 0 0 0 .8 1.2V122c-3.21-4.31-14.43-20.56-14.43-57.51h1.84v-2.58h-2.56V32.38a3.7 3.7 0 1 0-2.27.05v29.48h-2.56v2.55h1.83c0 36.95-11.22 53.2-14.42 57.51v-11.51a1.3 1.3 0 0 0 .8-1.2 1.25 1.25 0 1 0-1.66 1.2v29.86a43.5 43.5 0 0 1-11.91 25.3h-2.41V153a1.3 1.3 0 0 0 .8-1.2 1.25 1.25 0 1 0-2.49 0 1.3 1.3 0 0 0 .82 1.26zm42.86-23.44c.47-4.17 2.06-4.89 2.06-4.89s1.59.72 2.06 4.89v10.1h-4.12zm-6.35 0c.47-4.17 2.06-4.89 2.06-4.89s1.59.72 2.06 4.89v10.1h-4.12zm-6.35 0c.47-4.17 2.06-4.89 2.06-4.89s1.59.72 2.06 4.89v10.1h-4.12zm-6.35 0c.47-4.17 2.06-4.89 2.06-4.89s1.59.72 2.06 4.89v10.1h-4.12zm-6.35 0c.47-4.17 2.06-4.89 2.06-4.89s1.59.72 2.06 4.89v10.1h-4.12zm-16.48 316.09h62.65V263.33h-62.65zm52-173.18a1.47 1.47 0 0 1 2.93 0v40.18a1.47 1.47 0 0 1-2.93 0zm-7.43 0a1.47 1.47 0 0 1 2.93 0v40.18a1.47 1.47 0 0 1-2.93 0zm-7.43 0a1.46 1.46 0 1 1 2.93 0v40.18a1.46 1.46 0 1 1-2.93 0zm-7.43 0a1.47 1.47 0 0 1 2.93 0v40.18a1.47 1.47 0 0 1-2.93 0zm-7.43 0a1.47 1.47 0 0 1 2.93 0v40.18a1.47 1.47 0 0 1-2.93 0zm-7.43 0a1.47 1.47 0 0 1 2.93 0v40.18a1.47 1.47 0 0 1-2.93 0zm-7.43 0a1.47 1.47 0 0 1 2.93 0v40.18a1.47 1.47 0 0 1-2.93 0zM427.87 319h50.66a1.56 1.56 0 1 1 0 3.07h-50.66a1.56 1.56 0 1 1 0-3.07zm49 10.7v40.18a1.47 1.47 0 1 1-2.93 0V329.7a1.47 1.47 0 0 1 2.93 0zm-7.43 0v40.18a1.47 1.47 0 1 1-2.93 0V329.7a1.47 1.47 0 0 1 2.93 0zm-7.43 0v40.18a1.46 1.46 0 1 1-2.93 0V329.7a1.46 1.46 0 1 1 2.93 0zm-7.43 0v40.18a1.47 1.47 0 1 1-2.93 0V329.7a1.47 1.47 0 0 1 2.93 0zm-7.43 0v40.18a1.47 1.47 0 1 1-2.93 0V329.7a1.47 1.47 0 0 1 2.93 0zm-7.43 0v40.18a1.47 1.47 0 1 1-2.93 0V329.7a1.47 1.47 0 0 1 2.93 0zm-7.43 0v40.18a1.47 1.47 0 1 1-2.93 0V329.7a1.47 1.47 0 0 1 2.93 0zm-4.46 46.47h50.66a1.56 1.56 0 1 1 0 3.07h-50.62a1.56 1.56 0 1 1 0-3.07zm49 10.7v40.18a1.47 1.47 0 1 1-2.93 0v-40.18a1.47 1.47 0 0 1 2.93 0zm-7.43 0v40.18a1.47 1.47 0 0 1-2.93 0v-40.18a1.47 1.47 0 0 1 2.93 0zm-7.43 0v40.18a1.46 1.46 0 1 1-2.93 0v-40.18a1.46 1.46 0 0 1 2.93 0zm-7.43 0v40.18a1.47 1.47 0 1 1-2.93 0v-40.18a1.47 1.47 0 0 1 2.93 0zm-7.43 0v40.18a1.47 1.47 0 1 1-2.93 0v-40.18a1.47 1.47 0 0 1 2.93 0zm-7.43 0v40.18a1.47 1.47 0 0 1-2.93 0v-40.18a1.47 1.47 0 0 1 2.93 0zm-7.43 0v40.18a1.47 1.47 0 0 1-2.93 0v-40.18a1.47 1.47 0 0 1 2.93 0zm-4.46 46.47h50.66a1.56 1.56 0 1 1 0 3.07h-50.58a1.56 1.56 0 1 1 0-3.07zM476.08 201h-45.87v42.44h45.87zm-22.93 40.59a19.37 19.37 0 1 1 19.37-19.37 19.37 19.37 0 0 1-19.37 19.34z" fill="#a7c4bb"/><path d="M661.88 581.9v-16.62a1.74 1.74 0 0 0 0-3.48h-2.15c-3.37-.65-5.62-3.94-5.62-3.94v-58.73l5.71-2.34.19-3.47-9.74-10.49V479h-6.82a1.74 1.74 0 1 0 0-3.48c-6.12-1.45-8.72-7.31-8.72-7.31a1.74 1.74 0 1 0 0-3.47V237.73a1.74 1.74 0 1 0 0-3.48h-.28c0-.95 0-1.84.1-2.66a2.8 2.8 0 0 1 1.7-.58c.6 1.42 1.42.46 1.09-.88s-2.6-.21-2.62-.2a22.46 22.46 0 0 1 .68-3.3 3.07 3.07 0 0 1 2.36-1.15c.6 1.42 1.43.46 1.09-.88s-2.61-.2-2.61-.2a7.5 7.5 0 0 1 2.6-3.4c5.19-3.41 6 .82 6 .82l5.2-5.6v-5.33l-14.62-5.2h-1.12l-.68-7.37-2.73-3.56v-10.52a3.39 3.39 0 0 0-.24-1.61l3.21-13.81h1.18v-.77a3.41 3.41 0 0 0-1-.07l.53-2.25s1.27.49 1.27-.68 0-2.23-1.59-1.91c0 0-3.13-6.82-3.46-9.24a2 2 0 0 0-.41-2.22c-1-1-1.91-1.55-3.37-1l-1.48-1.47.12-2h-.46a1.88 1.88 0 0 1 .45-1.19l3.23-1.37s-1.19-3.84-3.78-4.63c0 0-.09-.94-.73-1.12l.36-1.07a1.82 1.82 0 0 0-1.35-.18l.19 1.15a1 1 0 0 0-1.12.49 1.57 1.57 0 0 0-1.74.82 9.18 9.18 0 0 0-1.34 3.2c-.54 1.89-1.27 2.34-1.27 2.92s2 .31 3.1.31l.39.49-.85.16.12 1.73a6.74 6.74 0 0 1-2.92 1.15 2.8 2.8 0 0 0-2.65.1l-.15.42a3.72 3.72 0 0 0-.82 2.56l.42.33a15.06 15.06 0 0 0 .15 4.6c.49 1.83.31 3.17 3.71 1.47a43.73 43.73 0 0 1-.67 5.75c-.46 1.85-1.43 5.06-1.07 7.92a10 10 0 0 1 2.19 0 18.85 18.85 0 0 0-.19 4 5.83 5.83 0 0 0-3.82 1.89 2.4 2.4 0 0 0-.48 2.1s-2.56.91-1.19 3.23v10.28l-2.73 3.56-.68 7.37h-1.09l-14.62 5.2v5.33l5.19 5.6s.82-4.24 6-.82a7.54 7.54 0 0 1 2.6 3.4s-2.29-1.14-2.62.2.48 2.3 1.09.88a3.07 3.07 0 0 1 2.35 1.15 22.61 22.61 0 0 1 .67 3.3s-2.29-1.14-2.62.2.49 2.31 1.09.88a2.81 2.81 0 0 1 1.7.58c.06.82.09 1.71.09 2.66h-.28a1.74 1.74 0 1 0 0 3.48v227.09a1.74 1.74 0 1 0 0 3.47s-2.6 5.86-8.71 7.31a1.74 1.74 0 1 0 0 3.48H594v3.79l-9.74 10.49.18 3.47 5.71 2.34v58.73s-2.25 3.28-5.62 3.94h-2.15a1.74 1.74 0 0 0 0 3.48v16.62a1.74 1.74 0 0 0 0 3.48h79.46a1.74 1.74 0 0 0 0-3.48zm-32.76-406.79s1.78-9.91 0-15.47a36 36 0 0 0 3.32 5.32 2.51 2.51 0 0 1 1 .59l-.54 2.54c-.5.06-.88.14-.88.14a.91.91 0 0 0-.27.86 4.11 4.11 0 0 1 1-.2l-2.59 12.36a6.89 6.89 0 0 0-3.07-2 13.43 13.43 0 0 0 0-3.46s.4-.68 2.03-.68z" fill="#466964"/><path d="M1042.91 411.87l.23-.08a66.83 66.83 0 0 0 10-4.7l.21-.12.21-.12a67.9 67.9 0 0 0 9.07-6.35l.18-.16.18-.16a63.74 63.74 0 0 0 7.83-7.83l.16-.18.16-.18a67.85 67.85 0 0 0 6.35-9.07l.12-.21.12-.21a66.89 66.89 0 0 0 4.7-10l.08-.23.08-.23a65.05 65.05 0 0 0 2.85-10.71v-.48a67.87 67.87 0 0 0 1-11v-.48a67.89 67.89 0 0 0-1-11v-.48a65.05 65.05 0 0 0-2.85-10.71l-.08-.23-.08-.23a66.84 66.84 0 0 0-4.7-10l-.12-.21-.12-.21a67.93 67.93 0 0 0-6.35-9.07l-.16-.18-.16-.18a63.81 63.81 0 0 0-7.83-7.83l-.18-.16-.18-.16a67.93 67.93 0 0 0-9.07-6.35l-.21-.12-.21-.12a66.87 66.87 0 0 0-10-4.7l-.23-.08-.23-.08a65 65 0 0 0-10.71-2.85h-.48a67.9 67.9 0 0 0-11-1h-.49a67.91 67.91 0 0 0-11 1h-.48a65 65 0 0 0-10.71 2.85l-.23.08-.23.08a66.77 66.77 0 0 0-10 4.7l-.21.12-.21.12a68 68 0 0 0-9.07 6.35l-.18.16-.18.16a63.8 63.8 0 0 0-7.83 7.83l-.16.18-.16.18a67.88 67.88 0 0 0-6.35 9.07l-.12.21-.12.21a66.74 66.74 0 0 0-4.7 10l-.08.23-.08.23a65 65 0 0 0-2.9 10.61v.48a67.71 67.71 0 0 0-1 11v.48a67.69 67.69 0 0 0 1 11v.48a65 65 0 0 0 2.81 10.77l.08.23.08.23a66.78 66.78 0 0 0 4.7 10l.12.21.12.21a67.81 67.81 0 0 0 6.35 9.07l.16.18.16.18a63.74 63.74 0 0 0 7.83 7.83l.18.16.18.16a68 68 0 0 0 9.07 6.35l.21.12.21.12a66.73 66.73 0 0 0 10 4.7l.23.08.23.08.61.21c-2.68 9.11-5.39 19.07-8 29.7 0 0-1 8 3.69.88 1.61-2.43 4.66-9.91 8.14-19.49.85.2 1.7.38 2.54.58a3.44 3.44 0 0 0 4.11-2.82 3.52 3.52 0 0 0-2.69-4.05l-1.59-.37.84-2.41q1.5.34 3 .61h.48a67.88 67.88 0 0 0 11 1h.48a67.87 67.87 0 0 0 11-1h.48q1.51-.27 3-.61c4.75 13.73 9.27 25.4 11.35 28.55 4.73 7.15 3.69-.88 3.69-.88-1.81-7.5-3.69-14.66-5.58-21.43a3.43 3.43 0 0 0 2.64.07c1.45-.57 2.91-1.13 4.32-1.8a3.4 3.4 0 0 0 1.67-4.7 3.57 3.57 0 0 0-4.56-1.7c-1.28.61-2.6 1.11-3.92 1.63a3.37 3.37 0 0 0-1.62 1.33q-.45-1.57-.91-3.1l.61-.21zm10.1-6l-.41.24c-1.51.9-3.09 1.67-4.67 2.44a58.83 58.83 0 0 0 2-7.42V401h.06a57.47 57.47 0 0 0 7.42 2c-1.41 1-2.88 2-4.41 2.85zm9.27-6.55l-.18.16-.18.16c-1.36 1.11-2.74 2.2-4.18 3.2a59.59 59.59 0 0 0 .69-7.64v-.06h.06a61.51 61.51 0 0 0 7.65.65c-1.23 1.21-2.51 2.38-3.86 3.51zm8-8.05l-.16.18-.16.18c-1.13 1.35-2.33 2.63-3.55 3.89a61.79 61.79 0 0 0-.65-7.65v-.06h.06a59.41 59.41 0 0 0 7.64-.69c-.97 1.39-2.07 2.76-3.17 4.12zm6.48-9.33l-.12.21-.12.21c-.87 1.53-1.83 3-2.84 4.44a57.46 57.46 0 0 0-2-7.42v-.06h.06a58.67 58.67 0 0 0 7.42-2c-.72 1.51-1.5 3.09-2.4 4.6zm4.78-10.31l-.08.22-.08.22c-.63 1.64-1.28 3.27-2 4.86a61 61 0 0 0-3.21-7v-.05h.05a60.68 60.68 0 0 0 6.94-3.27c-.49 1.67-1.03 3.34-1.62 5zm2.88-11v.46c-.28 1.73-.71 3.44-1.13 5.15a59.12 59.12 0 0 0-4.4-6.3h.05a57.81 57.81 0 0 0 6.27-4.43c-.27 1.63-.46 3.38-.78 5.11zm.71-16.57c.17 1.75.21 3.5.24 5.26v.47c0 1.76-.07 3.51-.24 5.26a62.22 62.22 0 0 0-5.4-5.44 62.15 62.15 0 0 0 5.4-5.44zm-1.92-11.2c.42 1.7.85 3.41 1.13 5.15v.46c.32 1.73.52 3.48.68 5.22a57.6 57.6 0 0 0-6.27-4.43h-.05a59.17 59.17 0 0 0 4.4-6.3zm-3.86-10.69c.75 1.59 1.4 3.22 2 4.86l.08.22.08.23c.58 1.66 1.12 3.33 1.57 5a60.69 60.69 0 0 0-6.94-3.27h-.05v-.05a61.07 61.07 0 0 0 3.21-7zm-5.66-9.85c1 1.44 2 2.91 2.83 4.44l.12.21.12.21c.9 1.51 1.67 3.09 2.44 4.67a58.93 58.93 0 0 0-7.42-2h-.06v-.06a57.43 57.43 0 0 0 2-7.42zm-7.27-8.72c1.22 1.26 2.43 2.54 3.55 3.89l.16.18.16.18c1.1 1.36 2.2 2.74 3.2 4.18a59.59 59.59 0 0 0-7.64-.69h-.06v-.06a61.61 61.61 0 0 0 .65-7.65zm-4.5-4.12l.18.16.18.16c1.35 1.13 2.63 2.33 3.89 3.55a61.6 61.6 0 0 0-7.65.65h-.06v-.06a59.33 59.33 0 0 0-.69-7.64c1.42.97 2.79 2.07 4.15 3.17zm-9.33-6.48l.21.12.21.12c1.52.87 3 1.83 4.44 2.83a57.3 57.3 0 0 0-7.42 2h-.06V298a58.85 58.85 0 0 0-2-7.42c1.53.74 3.11 1.52 4.62 2.42zm-10.31-4.78l.23.08.22.08c1.64.63 3.27 1.28 4.86 2a61.25 61.25 0 0 0-7 3.21h-.05v-.06a60.62 60.62 0 0 0-3.27-6.94c1.73.5 3.36 1.04 5.02 1.63zm-11-2.88h.46c1.74.28 3.44.71 5.15 1.13a59.33 59.33 0 0 0-6.3 4.4v-.05a57.88 57.88 0 0 0-4.43-6.27c1.66.27 3.41.45 5.14.78zm-11.31-1h.47c1.76 0 3.51.07 5.26.24a62.26 62.26 0 0 0-5.44 5.4 62.39 62.39 0 0 0-5.44-5.4c1.65-.13 3.41-.16 5.18-.2zm-11.31 1h.46c1.73-.32 3.48-.52 5.22-.68a57.6 57.6 0 0 0-4.43 6.27v.05a59.28 59.28 0 0 0-6.3-4.4c1.62-.46 3.33-.88 5.06-1.17zm-11 3l.22-.08.23-.08c1.66-.58 3.33-1.12 5-1.57a60.5 60.5 0 0 0-3.27 6.94v.06h-.05a61 61 0 0 0-7-3.21c1.64-.75 3.27-1.4 4.91-2.03zm-10.27 4.86l.21-.12.21-.12c1.51-.9 3.09-1.68 4.67-2.44a58.77 58.77 0 0 0-2 7.42v.06h-.06a57.25 57.25 0 0 0-7.42-2c1.43-.94 2.91-1.9 4.43-2.77zm-9.27 6.55l.18-.16.18-.16c1.36-1.1 2.74-2.2 4.18-3.2a59.59 59.59 0 0 0-.69 7.64v.13h-.06a61.58 61.58 0 0 0-7.65-.65c1.27-1.24 2.55-2.44 3.9-3.57zm-8 8.05l.16-.18.15-.18c1.13-1.35 2.33-2.63 3.55-3.89a61.81 61.81 0 0 0 .65 7.66v.06h-.06a59.39 59.39 0 0 0-7.57.73c.95-1.43 2-2.8 3.15-4.16zm-6.48 9.33l.12-.21.12-.21c.87-1.52 1.83-3 2.84-4.44a57.29 57.29 0 0 0 2 7.42v.06h-.06a59.07 59.07 0 0 0-7.42 2c.76-1.5 1.53-3.07 2.43-4.58zm-4.78 10.31l.08-.23.08-.22c.63-1.64 1.28-3.27 2-4.86a61.21 61.21 0 0 0 3.21 7v.05h-.05a60.72 60.72 0 0 0-6.94 3.27c.53-1.65 1.07-3.32 1.65-4.98zm-2.88 11v-.46c.28-1.74.71-3.44 1.13-5.15a59.29 59.29 0 0 0 4.4 6.3h-.05a57.7 57.7 0 0 0-6.27 4.43c.3-1.62.5-3.37.81-5.1zM955.3 355c-.17-1.75-.21-3.5-.24-5.26v-.47c0-1.75.07-3.51.24-5.26a62.16 62.16 0 0 0 5.4 5.44 62.36 62.36 0 0 0-5.4 5.44zm1.92 11.2c-.42-1.7-.85-3.41-1.13-5.15v-.46c-.32-1.73-.52-3.48-.68-5.22a57.79 57.79 0 0 0 6.27 4.43h.05a59.24 59.24 0 0 0-4.4 6.3zm3.86 10.69c-.75-1.59-1.4-3.22-2-4.86l-.08-.22-.08-.22c-.58-1.66-1.12-3.33-1.57-5a60.64 60.64 0 0 0 6.94 3.27h.05v.05a61.15 61.15 0 0 0-3.21 7zm5.66 9.85c-1-1.44-2-2.91-2.83-4.44l-.12-.21-.12-.21c-.9-1.51-1.68-3.09-2.44-4.67a58.76 58.76 0 0 0 7.42 2h.06v.06a57.42 57.42 0 0 0-2 7.42zm7.27 8.72c-1.22-1.26-2.43-2.54-3.55-3.89l-.15-.18-.16-.18c-1.1-1.36-2.2-2.74-3.2-4.18a59.42 59.42 0 0 0 7.64.69h.06v.06a61.58 61.58 0 0 0-.65 7.65zm4.5 4.12l-.18-.16-.18-.16c-1.35-1.13-2.63-2.33-3.89-3.55a61.49 61.49 0 0 0 7.65-.65h.09v.06a59.41 59.41 0 0 0 .69 7.64c-1.44-.95-2.81-2.05-4.17-3.15zm9.33 6.48l-.21-.12-.21-.12c-1.52-.87-3-1.83-4.44-2.83a57.57 57.57 0 0 0 7.42-2h.06v.06a58.8 58.8 0 0 0 2 7.42c-1.53-.71-3.11-1.47-4.62-2.38zm10.85 5l-.54-.19-.23-.08-.22-.08c-1.64-.63-3.27-1.28-4.86-2a60.92 60.92 0 0 0 7-3.21h.05v.06l.27.66q-.72 2.33-1.46 4.83zm10.45 2.7h-.46c-1-.15-1.9-.35-2.84-.57l.91-2.65c1.07-.74 2.1-1.51 3.1-2.32v.05a57.77 57.77 0 0 0 4.43 6.27c-1.66-.27-3.41-.47-5.14-.79zm11.31 1h-.45c-1.76 0-3.51-.07-5.26-.24a62.08 62.08 0 0 0 5.44-5.4 62.21 62.21 0 0 0 5.44 5.4c-1.62.11-3.41.15-5.16.18zm.15-7.26l-.38-.44-.38.44a59.29 59.29 0 0 1-5.14 5.2 57.06 57.06 0 0 1-4.16-6l-.3-.51-.45.37c-.75.62-1.52 1.2-2.3 1.77l.86-2.55c.57.12 1.13.24 1.7.34h.42a59 59 0 0 0 9.56.84h.42a59 59 0 0 0 9.56-.84h.42c.57-.1 1.13-.22 1.7-.34l.86 2.55c-.79-.57-1.56-1.16-2.3-1.77l-.45-.37-.3.51a57.07 57.07 0 0 1-4.16 6 59.29 59.29 0 0 1-5.18-5.26zm-.38-3.17c.49 0 .89-.74.89-1.65v-33.59c2.26 9.14 6.33 22.57 10.62 35.52l-1.54.31h-.4a58 58 0 0 1-9.37.82h-.42a58 58 0 0 1-9.37-.82h-.4l-1.54-.31c4.29-12.95 8.37-26.37 10.62-35.52v33.53c.02.91.42 1.65.91 1.65zm11.54 9.39h-.46c-1.73.32-3.48.52-5.22.68a57.93 57.93 0 0 0 4.43-6.27v-.05c1 .81 2 1.58 3.1 2.32l.91 2.65c-.86.26-1.8.46-2.76.62zm7.51-11.17h-.12c-8.05-25.85-15.27-43.18-16.81-46.8a6.56 6.56 0 1 0-4.26 0c-1.54 3.61-8.76 20.95-16.81 46.8h-.12l-.19-.07-.19-.07a56.89 56.89 0 0 1-8.51-4l-.18-.1-.18-.1a57.93 57.93 0 0 1-7.7-5.39l-.16-.14-.16-.13a53.85 53.85 0 0 1-6.65-6.65l-.13-.15-.13-.16a57.75 57.75 0 0 1-5.39-7.7l-.1-.18-.1-.18a56.87 56.87 0 0 1-4-8.51l-.07-.19-.07-.19a55 55 0 0 1-2.41-9.08v-.4a57.9 57.9 0 0 1-.82-9.37v-.41a57.89 57.89 0 0 1 .82-9.37v-.4a54.91 54.91 0 0 1 2.41-9.08l.07-.19.07-.19a56.77 56.77 0 0 1 4-8.51l.1-.18.1-.18a57.75 57.75 0 0 1 5.39-7.7l.13-.16.13-.15a53.86 53.86 0 0 1 6.65-6.65l.31-.27a57.86 57.86 0 0 1 7.7-5.39l.18-.1.18-.1a56.93 56.93 0 0 1 8.51-4l.19-.07.19-.06a54.89 54.89 0 0 1 9.08-2.41l.4-.07a57.88 57.88 0 0 1 9.37-.82h.41a57.88 57.88 0 0 1 9.37.82h.4a54.87 54.87 0 0 1 9.08 2.41l.19.06.19.07a56.88 56.88 0 0 1 8.51 4l.36.2a57.83 57.83 0 0 1 7.7 5.39l.16.13.16.13a53.93 53.93 0 0 1 6.65 6.65l.13.15.14.16a57.79 57.79 0 0 1 5.39 7.7l.1.18.1.18a56.72 56.72 0 0 1 4 8.51l.07.19.07.19a54.86 54.86 0 0 1 2.41 9.08v.4a57.89 57.89 0 0 1 .82 9.37v.41a57.9 57.9 0 0 1-.82 9.37v.4a54.91 54.91 0 0 1-2.41 9.08l-.07.19-.07.19a56.82 56.82 0 0 1-4 8.51l-.1.18-.1.18a57.79 57.79 0 0 1-5.39 7.7l-.14.16-.13.15a53.92 53.92 0 0 1-6.65 6.65l-.16.13-.16.14a57.9 57.9 0 0 1-7.7 5.39l-.18.1-.18.1a56.84 56.84 0 0 1-8.51 4l-.19.07zm.39 1.59l-.15-.49.17-.06.2-.07.2-.07a57.88 57.88 0 0 0 8.68-4.07l.18-.1.18-.1a59.14 59.14 0 0 0 7.86-5.5l.16-.14.16-.14a55 55 0 0 0 6.79-6.79l.14-.16.14-.16a59 59 0 0 0 5.5-7.86l.1-.18.1-.18a58 58 0 0 0 4.07-8.68l.07-.2.07-.2a56.12 56.12 0 0 0 2.46-9.27v-.42a59.09 59.09 0 0 0 .84-9.56v-.42a59.09 59.09 0 0 0-.84-9.56v-.42a56.16 56.16 0 0 0-2.46-9.27l-.07-.2-.07-.2a58.06 58.06 0 0 0-4.07-8.68l-.21-.36a58.9 58.9 0 0 0-5.5-7.86l-.14-.16-.14-.16a55 55 0 0 0-6.79-6.79l-.16-.14-.16-.14a59 59 0 0 0-7.86-5.5l-.18-.1-.18-.1a57.9 57.9 0 0 0-8.68-4.07l-.2-.07-.2-.07a56.1 56.1 0 0 0-9.26-2.47h-.42a59 59 0 0 0-9.56-.84h-.43a59 59 0 0 0-9.56.84h-.42a56.11 56.11 0 0 0-9.27 2.47l-.2.07-.2.07a58 58 0 0 0-8.68 4.07l-.18.1-.18.1a58.87 58.87 0 0 0-7.86 5.5l-.16.14-.16.14a54.93 54.93 0 0 0-6.79 6.79l-.14.16-.14.16a58.91 58.91 0 0 0-5.5 7.86l-.21.36a58.05 58.05 0 0 0-4.07 8.68l-.07.2-.07.2a56.1 56.1 0 0 0-2.46 9.27v.42a59 59 0 0 0-.84 9.56v.42a59 59 0 0 0 .84 9.56v.42a56.07 56.07 0 0 0 2.46 9.27l.07.2.07.2a58 58 0 0 0 4.07 8.68l.1.18.1.18a59 59 0 0 0 5.5 7.86l.14.16.14.16a55 55 0 0 0 6.79 6.79l.16.14.16.14a59.07 59.07 0 0 0 7.86 5.5l.18.1.18.1a57.93 57.93 0 0 0 8.68 4.07l.2.07.2.07.17.06-.15.49-.21-.54-.51.28a58.87 58.87 0 0 1-6.61 3.12 56.32 56.32 0 0 1-1.84-7.08l-.11-.58-.56.19a56.4 56.4 0 0 1-7.05 1.93 59.84 59.84 0 0 1-.59-7.28v-.59l-.58.09a60.79 60.79 0 0 1-7.29.69 60.86 60.86 0 0 1 .69-7.29l.09-.58h-.59a59.77 59.77 0 0 1-7.28-.6 56.57 56.57 0 0 1 1.93-7.05l.2-.56-.58-.11a56.58 56.58 0 0 1-7.08-1.84 59 59 0 0 1 3.12-6.6l.28-.51-.54-.21a57.49 57.49 0 0 1-6.64-3.05 56.77 56.77 0 0 1 4.24-6l.37-.45-.51-.3a56.89 56.89 0 0 1-6-4.16 59.21 59.21 0 0 1 5.2-5.14l.44-.38-.44-.38a59.42 59.42 0 0 1-5.2-5.13 56.82 56.82 0 0 1 6-4.16l.51-.3-.37-.45a56.51 56.51 0 0 1-4.24-6 57.55 57.55 0 0 1 6.64-3l.54-.21-.28-.51a59 59 0 0 1-3.12-6.61 56.2 56.2 0 0 1 7.08-1.84l.58-.11-.2-.56a56.35 56.35 0 0 1-1.93-7.05 59.94 59.94 0 0 1 7.28-.6h.59l-.09-.58a60.88 60.88 0 0 1-.69-7.29 60.91 60.91 0 0 1 7.29.69l.58.09v-.59a59.75 59.75 0 0 1 .6-7.28 56.36 56.36 0 0 1 7.05 1.93l.56.2.11-.58a56.38 56.38 0 0 1 1.84-7.08 58.83 58.83 0 0 1 6.61 3.12l.51.28.21-.54a57.8 57.8 0 0 1 3.05-6.64 56.83 56.83 0 0 1 6 4.24l.45.37.3-.51a56.9 56.9 0 0 1 4.16-6 59.34 59.34 0 0 1 5.13 5.2l.38.44.38-.44a59.36 59.36 0 0 1 5.14-5.2 57 57 0 0 1 4.16 6l.3.51.45-.37a56.9 56.9 0 0 1 6-4.24 57.53 57.53 0 0 1 3 6.64l.21.54.51-.28a58.87 58.87 0 0 1 6.61-3.12 56.32 56.32 0 0 1 1.84 7.08l.11.58.56-.2a56.45 56.45 0 0 1 7.05-1.93 60 60 0 0 1 .59 7.28v.59l.58-.09a60.92 60.92 0 0 1 7.29-.69 60.58 60.58 0 0 1-.69 7.29l-.09.58h.59a59.86 59.86 0 0 1 7.28.6 56.46 56.46 0 0 1-1.93 7.05l-.19.56.58.11a56.2 56.2 0 0 1 7.08 1.84 59.15 59.15 0 0 1-3.12 6.61l-.28.51.54.21a57.66 57.66 0 0 1 6.64 3.05 56.81 56.81 0 0 1-4.24 6l-.37.45.51.3a56.93 56.93 0 0 1 6 4.16 59.34 59.34 0 0 1-5.2 5.13l-.44.38.44.38a59.21 59.21 0 0 1 5.2 5.14 57 57 0 0 1-6 4.16l-.51.3.37.45a57.1 57.1 0 0 1 4.24 6 57.59 57.59 0 0 1-6.64 3.05l-.54.21.28.51a58.88 58.88 0 0 1 3.12 6.6 56.49 56.49 0 0 1-7.08 1.84l-.58.11.19.56a56.24 56.24 0 0 1 1.93 7.05 60 60 0 0 1-7.28.59h-.59l.09.58a60.75 60.75 0 0 1 .69 7.29 60.79 60.79 0 0 1-7.29-.69l-.58-.09v.59a59.75 59.75 0 0 1-.6 7.28 56.43 56.43 0 0 1-7.05-1.93l-.56-.19-.11.58A56.27 56.27 0 0 1 1047 407a58.91 58.91 0 0 1-6.61-3.12l-.51-.28zm2.62 6.77l-.55.19q-.74-2.5-1.48-4.91l.27-.66v-.06h.05a61 61 0 0 0 7 3.21c-1.59.75-3.22 1.4-4.86 2l-.22.08zm-93.54-72.65a3.53 3.53 0 0 0 4.05-2.69c.34-1.37.59-2.77 1-4.12a3.57 3.57 0 0 0-2.4-4.23 3.4 3.4 0 0 0-4.37 2.39c-.45 1.49-.73 3-1.1 4.55a3.45 3.45 0 0 0 2.83 4.06zm7-21.53a3.57 3.57 0 0 0 4.69-1.29c.68-1.24 1.45-2.43 2.22-3.62a3.56 3.56 0 0 0-1-4.77 3.42 3.42 0 0 0-4.9.91c-.85 1.31-1.69 2.62-2.44 4a3.41 3.41 0 0 0 1.44 4.73zm18.16-18.1c1.08-.91 2.11-1.89 3.24-2.75a3.57 3.57 0 0 0 .54-4.83 3.4 3.4 0 0 0-4.94-.64c-1.24.95-2.38 2-3.57 3a3.44 3.44 0 0 0-.14 5 3.52 3.52 0 0 0 4.88.18zm18-11.81c1.28-.61 2.6-1.11 3.92-1.63a3.55 3.55 0 0 0 2-4.43 3.42 3.42 0 0 0-4.5-2.14c-1.45.57-2.91 1.13-4.32 1.8a3.4 3.4 0 0 0-1.67 4.69 3.57 3.57 0 0 0 4.6 1.67zm20.77-5.67c1.41-.15 2.82-.24 4.23-.33a3.53 3.53 0 0 0 3.29-3.59 3.44 3.44 0 0 0-3.62-3.42c-1.55.1-3.11.2-4.66.37a3.42 3.42 0 0 0-3 3.94 3.55 3.55 0 0 0 3.79 2.99zm21.53 1c1.37.34 2.77.59 4.12 1a3.57 3.57 0 0 0 4.23-2.4 3.4 3.4 0 0 0-2.39-4.37c-1.49-.45-3-.73-4.55-1.1a3.44 3.44 0 0 0-4.11 2.82 3.52 3.52 0 0 0 2.73 4.02zm20.13 7.64c1.24.68 2.43 1.45 3.62 2.22a3.56 3.56 0 0 0 4.77-1 3.42 3.42 0 0 0-.91-4.9c-1.31-.85-2.62-1.69-4-2.44a3.41 3.41 0 0 0-4.78 1.4 3.57 3.57 0 0 0 1.33 4.69zm19.56 16.71a3.57 3.57 0 0 0 4.83.54 3.41 3.41 0 0 0 .64-4.94c-.95-1.24-2-2.38-3-3.56a3.44 3.44 0 0 0-5-.14 3.52 3.52 0 0 0-.21 4.86c.93 1.06 1.91 2.09 2.77 3.21zm10.7 18.69a3.55 3.55 0 0 0 4.43 2 3.42 3.42 0 0 0 2.14-4.5c-.57-1.45-1.13-2.91-1.8-4.32a3.4 3.4 0 0 0-4.69-1.67 3.57 3.57 0 0 0-1.71 4.56c.63 1.27 1.14 2.59 1.65 3.91zm11 16.1a3.42 3.42 0 0 0-3.94-3 3.55 3.55 0 0 0-3 3.8c.15 1.41.24 2.82.33 4.23a3.53 3.53 0 0 0 3.59 3.29 3.44 3.44 0 0 0 3.42-3.62c-.09-1.62-.19-3.18-.36-4.73zm-3.94 19.6a3.53 3.53 0 0 0-4.05 2.69c-.34 1.37-.59 2.77-1 4.12a3.57 3.57 0 0 0 2.4 4.23 3.4 3.4 0 0 0 4.37-2.38c.45-1.49.73-3 1.1-4.55a3.44 3.44 0 0 0-2.78-4.14zm-7 21.53a3.57 3.57 0 0 0-4.69 1.29c-.68 1.24-1.45 2.43-2.22 3.62a3.56 3.56 0 0 0 1 4.77 3.42 3.42 0 0 0 4.9-.91c.85-1.31 1.69-2.62 2.44-4a3.41 3.41 0 0 0-1.39-4.8zm-18.16 18.1c-1.08.91-2.11 1.89-3.24 2.75a3.57 3.57 0 0 0-.54 4.83 3.4 3.4 0 0 0 4.94.64c1.24-.95 2.38-2 3.57-3a3.44 3.44 0 0 0 .14-5 3.52 3.52 0 0 0-4.84-.25zM1027.74 418c-1.41.15-2.82.24-4.23.33a3.53 3.53 0 0 0-3.29 3.59 3.44 3.44 0 0 0 3.62 3.42c1.55-.1 3.11-.2 4.66-.37a3.42 3.42 0 0 0 3-3.94 3.55 3.55 0 0 0-3.76-3.03zm-41.66-8.65c-1.24-.68-2.43-1.45-3.62-2.22a3.56 3.56 0 0 0-4.77 1 3.42 3.42 0 0 0 .91 4.9c1.31.85 2.62 1.69 4 2.44a3.4 3.4 0 0 0 4.78-1.4 3.57 3.57 0 0 0-1.3-4.75zm-19.56-16.71a3.57 3.57 0 0 0-4.83-.54 3.4 3.4 0 0 0-.69 4.9c.95 1.24 2 2.38 3 3.57a3.44 3.44 0 0 0 5 .14 3.53 3.53 0 0 0 .22-4.86c-.86-1.09-1.84-2.11-2.7-3.24zm-10.7-18.69a3.55 3.55 0 0 0-4.43-2 3.42 3.42 0 0 0-2.14 4.5c.57 1.45 1.13 2.91 1.8 4.32a3.4 3.4 0 0 0 4.69 1.67 3.57 3.57 0 0 0 1.7-4.56c-.6-1.33-1.1-2.65-1.62-3.96zm-4-16.86c-.15-1.41-.24-2.82-.33-4.23a3.53 3.53 0 0 0-3.59-3.29 3.44 3.44 0 0 0-3.42 3.62c.1 1.55.2 3.11.37 4.66a3.42 3.42 0 0 0 3.94 3 3.55 3.55 0 0 0 3-3.79zm78.6-9.32l41.33-11.08c.88-.24 1.49-.81 1.37-1.29s-.95-.67-1.83-.43L1029.92 346a10.22 10.22 0 0 1 .47 1.74zm-.81-2.57l37.06-21.4c.79-.46 1.23-1.17 1-1.6s-1.09-.4-1.88.05l-37.05 21.39a10.32 10.32 0 0 1 .83 1.53zm1 4.37v.89h42.79c.91 0 1.65-.4 1.65-.89s-.74-.89-1.65-.89h-42.79c-.08.26-.06.56-.06.86zm41.17 12.88l-41.33-11.07a10.27 10.27 0 0 1-.46 1.72l41.33 11.08c.88.24 1.7 0 1.83-.43s-.55-1.1-1.43-1.33zm-43.59-19.52l30.25-30.25c.65-.65.89-1.45.54-1.8s-1.15-.11-1.8.54l-30.25 30.25a10.41 10.41 0 0 1 1.2 1.22zm-59.41-6.23l41.33 11.07a10.22 10.22 0 0 1 .46-1.72l-41.33-11.08c-.88-.24-1.7 0-1.83.43s.43 1.03 1.31 1.26zm41.33 14.68l-41.33 11.07c-.88.24-1.5.81-1.37 1.29s.95.67 1.83.43l41.33-11.08a10.26 10.26 0 0 1-.52-1.75zm2.26-8.45a10.42 10.42 0 0 1 1.26-1.26l-30.25-30.25c-.65-.65-1.45-.89-1.8-.54s-.11 1.15.54 1.8zm-2.43 6.65v-.89h-42.8c-.91 0-1.65.4-1.65.89s.74.89 1.65.89h42.79c-.03-.33-.05-.63-.05-.93zm-36.08-25.77l37.06 21.4a10.32 10.32 0 0 1 .89-1.55l-37.11-21.43c-.79-.46-1.63-.48-1.88-.06s.18 1.15.99 1.6zm32.25-27.1c-.48.13-.67.95-.43 1.83l11.07 41.33a10.24 10.24 0 0 1 1.72-.46L1007.34 298c-.23-.84-.81-1.45-1.29-1.33zm41.53 100.27c.43-.25.4-1.09-.05-1.88l-21.45-37.1a10.32 10.32 0 0 1-1.55.89L1046 396c.44.74 1.16 1.19 1.58.94zm-54.73-94.8c-.43.25-.4 1.09.05 1.88l21.39 37.06a10.3 10.3 0 0 1 1.55-.89l-21.4-37.06c-.5-.83-1.22-1.28-1.65-1.03zm27.37-7.33c-.49 0-.89.74-.89 1.66v42.79h1.78v-42.84c-.06-.91-.46-1.65-.95-1.65zm27.37 7.33c-.43-.25-1.14.19-1.6 1l-21.39 37.06a10.3 10.3 0 0 1 1.55.89l21.32-37.13c.47-.77.47-1.61.05-1.86zm-13.2-5.47c-.48-.13-1.05.48-1.29 1.37L1022 339.37a10.23 10.23 0 0 1 1.72.46l11.07-41.33c.26-.88.07-1.7-.41-1.83zm-6.26 59.51a10.41 10.41 0 0 1-1.26 1.26l30.25 30.25c.65.65 1.45.89 1.8.54s.11-1.15-.54-1.8zm38.5 19.12l-37.06-21.4a10.33 10.33 0 0 1-.89 1.55l37.05 21.39c.79.46 1.63.48 1.88.05s-.25-1.17-1.04-1.62zm-55.77-21.39l-37.06 21.39c-.79.46-1.23 1.17-1 1.6s1.09.4 1.88-.05l37.05-21.39a10.35 10.35 0 0 1-.93-1.59zm1.45 2.28l-30.25 30.25c-.65.65-.89 1.45-.54 1.8s1.15.11 1.8-.54l30.25-30.25a10.38 10.38 0 0 1-1.32-1.3zm-19.46 40.75c.43.25 1.14-.2 1.6-1l21.39-37.06a10.29 10.29 0 0 1-1.55-.89l-21.39 37.05c-.51.77-.53 1.61-.11 1.86zM812 296.66v-14.71h-1.12v-1.24h3.71v1.24h-1.12v13.86l4.57-2.64v-11.22h-1.12v-1.24h3.71v1.24h-1.12v10.37l4.57-2.64v-7.73H823v-1.24h3.71v1.24h-1.12v6.88l4.57-2.64v-4.25H829v-1.24h3.71v1.24h-1.11v3.4l1.12-.64 1.17-.68 1.17.68 1.11.64v-3.4h-1.12v-1.24h3.71v1.24h-1.12v4.25l4.57 2.64v-6.88h-1.11v-1.24h3.71v1.24h-1.11v7.73l4.58 2.64v-10.37h-1.12v-1.24h3.71v1.24h-1.12v11.22l4.57 2.64v-13.86h-1.12v-1.24h3.71v1.24h-1.12v14.71l7.49 4.32h8v-22.6c0-1.9-7.75-1.76-7.75-1.76v-9.94c0-2.64-3.29-3-3.29-3 0-24.49-18.46-29.75-18.46-29.75 0-3-2.24-3-2.24-3v-2.35h-1.34v-10.77h-.63v-4.28h.63v-.82h-.63c0-3.19-1.65-3.25-2.3-4.72s-.75-5.49-.75-5.49a1.75 1.75 0 0 0-.13-3.34v-2.66h1.53v-.92h-1.53v-2.83h-.92v2.83h-1.57v.92h1.53v2.65a1.75 1.75 0 0 0-.13 3.34s-.1 4-.75 5.49-2.3 1.53-2.3 4.72h-.63v.82h.63v4.28h-.63v10.71h-1.34v2.35s-2.23 0-2.23 3c0 0-18.46 5.27-18.46 29.75 0 0-3.29.38-3.29 3v9.94s-7.75-.14-7.75 1.76V301h8zm53.31.74h1.12v-15.45h-1.12v-1.24H869v1.24h-1.12v15.45H869v1.24h-3.71zm-6-28.33h3v5.15h-3zm-.08 28.33h1.12v-15.45h-1.12v-1.24H863v1.24h-1.12v15.45H863v1.24h-3.71zm-4.82-28.33h3v5.15h-3zm-4.9 0h3v5.15h-3zm-4.9 0h3v5.15h-3zm-4.9 0h3v5.15h-3zm-1.9 5.15h-3v-5.15h3zm-1.63-47h.5v-8.08h-.5v-.49h1.54v.49h-.5v8.08h.5v.49h-1.52zm-1.9 0h.5v-8.08h-.5v-.49h1.54v.49h-.5v8.08h.5v.49h-1.52zm-2.36 0h.5v-8.08h-.5v-.49h1.54v.49H833v8.08h.5v.49h-1.54zm-1.9 0h.5v-8.08H830v-.49h1.54v.49h-.5v8.08h.5v.49H830zm-.1 41.87h3v5.15h-3zm-4.9 0h3v5.15h-3zm-4.9 0h3v5.15h-3zm-4.9 0h3v5.15h-3zm-4.9 0h3v5.15h-3zm-4.9 0h3v5.15h-3zm-.63 28.33h1.12v-15.47h-1.12v-1.24h3.71v1.24h-1.12v15.45h1.12v1.24h-3.71zm-2.34-15.45h-1.12v15.43h1.12v1.24h-3.71v-1.24h1.12v-15.45h-1.12v-1.24h3.71zM786 314.38h95.88l-47.94-27.64zm87.06-2.38h-78.34l39.17-22.59zm-6.58-1.76l-32.6-18.8-32.6 18.8zm10.32-1.5V301h-3.22v2.35h-6.24zm-82.62-5.46V301H791v7.8l9.46-5.46zm150.26 133.85v-9.64l-4.9-2.8V323.6l4-9.22h-4.09v-5.13h-5.19v-21.5l3.12-3.12h-19.45a9.75 9.75 0 0 0-19.28 0h-19.56l3.12 3.12v26.63l-.1 2.35H786v3.43h96l-.14 3.43h-3.76v3h-1.84v32.55h1.84v3h4.11v3.43H786v-3.43h4.11v-3h1.84v-32.56h-1.84v-3H786l-.38-9.22v-26.61l3.12-3.12h-19.62a9.75 9.75 0 0 0-19.28 0H730.4l3.12 3.12v21.51h-5.19v5.13h-4.09l4 9.22v101.1l-4.9 2.8v9.64h37v4.29h-7.36v4.29h161.9v-4.29h-7.36v-4.29zm-36.15-149.86a10.94 10.94 0 1 1-10.94 10.94 10.94 10.94 0 0 1 10.94-10.94zm9.91 42.88h-19.94l10-5.75zm-158.72-42.88a10.94 10.94 0 1 1-10.94 10.94 10.94 10.94 0 0 1 10.94-10.94zm.06 37.13l10 5.75h-19.97zm4.08 28.68h-8.14v-20.94h8.14zm138.74 26.62h-1.84v42h1.84v3h-6.62v-3h1.84v-42h-1.84v-3h-2v3h-1.84v42h1.84v3h-6.64v-3h1.84v-42h-1.84v-3h-9v3h-1.84v42h1.84v3h-6.62v-3h1.84v-42h-1.84v-3h-2v3h-1.84v42h1.84v3h-6.62v-3h1.84v-42h-1.84v-3h-9v3H852v42h1.84v3h-6.62v-3h1.84v-42h-1.84v-3h-2v3h-1.84v42h1.84v3h-6.62v-3h1.84v-42h-1.84v-3h-9v3h-1.84v42h1.84v3H823v-3h1.84v-42H823v-3h-2v3h-1.9v42h1.84v3h-6.62v-3h1.84v-42h-1.84v-3h-9v3h-1.84v42h1.84v3h-6.62v-3h1.84v-42h-1.84v-3h-2v3h-1.84v42h1.84v3h-6.62v-3h1.84v-42h-1.84v-3h-9v3h-1.84v42h1.84v3h-6.62v-3h1.84v-42h-1.84v-3h-2v3h-1.84v42h1.84v3h-6.66v-3h1.84v-42h-1.84v-6.42h136.56zm1.8-26.62v-20.94h8.14v20.93zm-165.69-70.8H748a12.09 12.09 0 0 1 23 0h9.65v-33.89l3.12-3.12-6-6h-4.19v-5.91s-4.3.43-4.3-12l-5.38-11.18s.47-5.85-2.51-7.51a2.24 2.24 0 0 0-.29-3.1 27.78 27.78 0 0 1-.71-5.94 1.58 1.58 0 1 0-1.59 0 27.78 27.78 0 0 1-.71 5.94 2.24 2.24 0 0 0-.29 3.1c-3 1.67-2.51 7.51-2.51 7.51l-5.38 11.18c0 12.47-4.3 12-4.3 12v5.91h-4.19l-6 6 3.12 3.12zm148.69 0h9.66a12.09 12.09 0 0 1 23 0h9.54v-33.89l3.12-3.12-6-6h-4.19v-5.91s-4.3.43-4.3-12l-5.38-11.18s.47-5.85-2.51-7.51a2.24 2.24 0 0 0-.29-3.1 27.7 27.7 0 0 1-.71-5.94 1.58 1.58 0 1 0-1.59 0 27.81 27.81 0 0 1-.71 5.94 2.25 2.25 0 0 0-.29 3.1c-3 1.67-2.51 7.51-2.51 7.51l-5.38 11.18c0 12.47-4.3 12-4.3 12v5.91h-4.19l-6 6 3.12 3.12zm-17.7 41.32v3h-1.84v32.55h1.84v3h2v-3h1.84v-32.57h-1.84v-3zm-39.88 0v3h-1.84v32.55h1.84v3h9v-3h1.84v-32.57h-1.84v-3zm15.62 0v3h-1.84v32.55h1.84v3h2v-3h1.84v-32.57h-1.84v-3zm8.64 0v3H852v32.55h1.84v3h9v-3h1.84v-32.57h-1.84v-3zm-57.16 0v3h-1.84v32.55h1.84v3h2v-3h1.84v-32.57h-1.82v-3zm24.26 0v3h-1.84v32.55h1.84v3h2v-3h1.84v-32.57H823v-3zm-15.62 0v3h-1.84v32.55h1.84v3h9v-3h1.84v-32.57h-1.84v-3z" fill="#a7c4bb"/></g></svg>